Amstlevar-Italic-opsz144-wght900-wdth50.ufo
<glyph name="exclam" format="2">
  <advance width="729"/>
  <unicode hex="0021"/>
  <outline>
    <contour>
      <point x="112.0" y="159.0" type="qcurve" smooth="yes"/>
      <point x="116.0" y="242.0"/>
      <point x="215.0" y="343.0"/>
      <point x="300.0" y="343.0" type="qcurve" smooth="yes"/>
      <point x="379.0" y="343.0"/>
      <point x="471.0" y="238.0"/>
      <point x="464.0" y="159.0" type="qcurve" smooth="yes"/>
      <point x="460.0" y="75.0"/>
      <point x="360.0" y="-23.0"/>
      <point x="275.0" y="-23.0" type="qcurve" smooth="yes"/>
      <point x="196.0" y="-23.0"/>
      <point x="106.0" y="79.0"/>
    </contour>
    <contour>
      <point x="288.0" y="1345.0" type="line" smooth="yes"/>
      <point x="292.0" y="1430.0"/>
      <point x="454.0" y="1545.0"/>
      <point x="546.0" y="1545.0" type="qcurve" smooth="yes"/>
      <point x="639.0" y="1546.0"/>
      <point x="757.0" y="1429.0"/>
      <point x="731.0" y="1345.0" type="qcurve" smooth="yes"/>
      <point x="649.0" y="1118.0" type="line"/>
      <point x="528.0" y="933.0" type="line"/>
      <point x="391.0" y="499.0" type="line"/>
      <point x="300.0" y="490.0" type="line"/>
      <point x="331.0" y="924.0" type="line"/>
      <point x="288.0" y="1130.0" type="line"/>
    </contour>
  </outline>
</glyph>
<glyph name="numbersign" format="2">
  <advance width="936"/>
  <unicode hex="0023"/>
  <outline>
    <contour>
      <point x="19.0" y="402.0" type="line"/>
      <point x="35.0" y="624.0" type="line"/>
      <point x="837.0" y="624.0" type="line"/>
      <point x="821.0" y="402.0" type="line"/>
    </contour>
    <contour>
      <point x="128.0" y="859.0" type="line"/>
      <point x="144.0" y="1081.0" type="line"/>
      <point x="946.0" y="1081.0" type="line"/>
      <point x="930.0" y="859.0" type="line"/>
    </contour>
    <contour>
      <point x="96.0" y="-21.0" type="line"/>
      <point x="514.0" y="1536.0" type="line"/>
      <point x="571.0" y="1531.0" type="line"/>
      <point x="153.0" y="-26.0" type="line"/>
    </contour>
    <contour>
      <point x="392.0" y="-14.0" type="line"/>
      <point x="811.0" y="1543.0" type="line"/>
      <point x="867.0" y="1539.0" type="line"/>
      <point x="448.0" y="-18.0" type="line"/>
    </contour>
  </outline>
</glyph>
<glyph name="dollar" format="2">
  <advance width="894"/>
  <unicode hex="0024"/>
  <outline>
    <contour>
      <point x="-90" y="192" type="qcurve"/>
      <point x="-4" y="267" type="line"/>
      <point x="33" y="208"/>
      <point x="177" y="96"/>
      <point x="294" y="95" type="qcurve" smooth="yes"/>
      <point x="406" y="93"/>
      <point x="534" y="229"/>
      <point x="541" y="309" type="qcurve" smooth="yes"/>
      <point x="551" y="424"/>
      <point x="424" y="550"/>
      <point x="326" y="634" type="qcurve" smooth="yes"/>
      <point x="231" y="717"/>
      <point x="84" y="977"/>
      <point x="113" y="1156" type="qcurve" smooth="yes"/>
      <point x="139" y="1323"/>
      <point x="381" y="1501"/>
      <point x="565" y="1498" type="qcurve" smooth="yes"/>
      <point x="717" y="1496"/>
      <point x="885" y="1377"/>
      <point x="924" y="1304" type="qcurve"/>
      <point x="856" y="1252" type="line"/>
      <point x="828" y="1305"/>
      <point x="663" y="1421"/>
      <point x="563" y="1422" type="qcurve" smooth="yes"/>
      <point x="484" y="1423"/>
      <point x="390" y="1347"/>
      <point x="383" y="1272" type="qcurve" smooth="yes"/>
      <point x="375" y="1185"/>
      <point x="505" y="1031"/>
      <point x="601" y="947" type="qcurve" smooth="yes"/>
      <point x="714" y="853"/>
      <point x="851" y="606"/>
      <point x="837" y="447" type="qcurve" smooth="yes"/>
      <point x="820" y="263"/>
      <point x="508" y="8"/>
      <point x="306" y="8" type="qcurve" smooth="yes"/>
      <point x="142" y="8"/>
      <point x="-38" y="118"/>
    </contour>
    <contour>
      <point x="222" y="-128" type="line"/>
      <point x="266" y="33" type="line"/>
      <point x="265" y="33" type="line"/>
      <point x="455" y="803" type="line"/>
      <point x="497" y="773" type="line"/>
      <point x="315" y="32" type="line"/>
      <point x="316" y="32" type="line"/>
      <point x="276" y="-128" type="line"/>
    </contour>
    <contour>
      <point x="649" y="1574" type="line"/>
      <point x="699" y="1576" type="line"/>
      <point x="673" y="1468" type="line"/>
      <point x="673" y="1468" type="line"/>
      <point x="499" y="785" type="line"/>
      <point x="457" y="816" type="line"/>
      <point x="622" y="1469" type="line"/>
      <point x="623" y="1469" type="line"/>
    </contour>
  </outline>
</glyph>
<glyph name="percent" format="2">
  <advance width="1523"/>
  <unicode hex="0025"/>
  <outline>
    <contour>
      <point x="94" y="1103" type="qcurve" smooth="yes"/>
      <point x="141" y="1304"/>
      <point x="399" y="1521"/>
      <point x="557" y="1521" type="qcurve" smooth="yes"/>
      <point x="695" y="1521"/>
      <point x="825" y="1276"/>
      <point x="776" y="1074" type="qcurve" smooth="yes"/>
      <point x="728" y="871"/>
      <point x="467" y="641"/>
      <point x="305" y="641" type="qcurve" smooth="yes"/>
      <point x="159" y="641"/>
      <point x="46" y="896"/>
    </contour>
    <contour>
      <point x="377" y="1101" type="qcurve" smooth="yes"/>
      <point x="330" y="927"/>
      <point x="282" y="679"/>
      <point x="334" y="679" type="qcurve" smooth="yes"/>
      <point x="387" y="678"/>
      <point x="447" y="902"/>
      <point x="494" y="1085" type="qcurve" smooth="yes"/>
      <point x="540" y="1253"/>
      <point x="585" y="1477"/>
      <point x="535" y="1477" type="qcurve" smooth="yes"/>
      <point x="479" y="1478"/>
      <point x="423" y="1274"/>
    </contour>
    <contour>
      <point x="296" y="6" type="line"/>
      <point x="1141" y="1520" type="line"/>
      <point x="1221" y="1480" type="line"/>
      <point x="377" y="-35" type="line"/>
    </contour>
    <contour>
      <point x="764" y="425" type="qcurve" smooth="yes"/>
      <point x="809" y="621"/>
      <point x="1057" y="863"/>
      <point x="1225" y="863" type="qcurve" smooth="yes"/>
      <point x="1373" y="863"/>
      <point x="1488" y="603"/>
      <point x="1446" y="396" type="qcurve" smooth="yes"/>
      <point x="1409" y="213"/>
      <point x="1141" y="-17"/>
      <point x="979" y="-17" type="qcurve" smooth="yes"/>
      <point x="831" y="-17"/>
      <point x="720" y="238"/>
    </contour>
    <contour>
      <point x="1047" y="423" type="qcurve" smooth="yes"/>
      <point x="1004" y="269"/>
      <point x="956" y="22"/>
      <point x="1008" y="22" type="qcurve" smooth="yes"/>
      <point x="1061" y="21"/>
      <point x="1127" y="244"/>
      <point x="1164" y="407" type="qcurve" smooth="yes"/>
      <point x="1205" y="575"/>
      <point x="1259" y="818"/>
      <point x="1209" y="818" type="qcurve" smooth="yes"/>
      <point x="1154" y="819"/>
      <point x="1095" y="596"/>
    </contour>
  </outline>
</glyph>
<glyph name="parenright" format="2">
  <advance width="785"/>
  <unicode hex="0029"/>
  <outline>
    <contour>
      <point x="623.0" y="692.0" type="qcurve" smooth="yes"/>
      <point x="575.0" y="438.0"/>
      <point x="120.0" y="-35.0"/>
      <point x="-159.0" y="-146.0" type="qcurve"/>
      <point x="-207.0" y="-110.0" type="line"/>
      <point x="-81.0" y="24.0"/>
      <point x="119.0" y="456.0"/>
      <point x="170.0" y="689.0" type="qcurve" smooth="yes"/>
      <point x="220.0" y="922.0"/>
      <point x="243.0" y="1360.0"/>
      <point x="170.0" y="1486.0" type="qcurve"/>
      <point x="230.0" y="1534.0" type="line"/>
      <point x="462.0" y="1411.0"/>
      <point x="676.0" y="986.0"/>
    </contour>
  </outline>
</glyph>
<glyph name="asterisk" format="2">
  <advance width="830"/>
  <unicode hex="002A"/>
  <outline>
    <contour>
      <point x="347" y="783" type="qcurve" smooth="yes"/>
      <point x="314" y="796"/>
      <point x="255" y="861"/>
      <point x="287" y="901" type="qcurve" smooth="yes"/>
      <point x="484.0" y="1150.0" type="line"/>
      <point x="484.0" y="1153.0" type="line"/>
      <point x="204.0" y="1012.0" type="line" smooth="yes"/>
      <point x="161.0" y="990.0"/>
      <point x="91" y="1067"/>
      <point x="85" y="1105" type="qcurve" smooth="yes"/>
      <point x="80" y="1142"/>
      <point x="130" y="1227"/>
      <point x="174" y="1221" type="qcurve" smooth="yes"/>
      <point x="479.0" y="1171.0" type="line"/>
      <point x="480.0" y="1173.0" type="line"/>
      <point x="222.0" y="1351.0" type="line" smooth="yes"/>
      <point x="183.0" y="1377.0"/>
      <point x="220" y="1469"/>
      <point x="248" y="1493" type="qcurve" smooth="yes"/>
      <point x="275" y="1516"/>
      <point x="370" y="1532"/>
      <point x="385" y="1487" type="qcurve" smooth="yes"/>
      <point x="491.0" y="1188.0" type="line"/>
      <point x="494.0" y="1189.0" type="line"/>
      <point x="513.0" y="1511.0" type="line" smooth="yes"/>
      <point x="515.0" y="1562.0"/>
      <point x="618" y="1576"/>
      <point x="648" y="1563" type="qcurve" smooth="yes"/>
      <point x="682" y="1549"/>
      <point x="741" y="1473"/>
      <point x="709" y="1434" type="qcurve" smooth="yes"/>
      <point x="510.0" y="1184.0" type="line"/>
      <point x="511.0" y="1180.0" type="line"/>
      <point x="789.0" y="1322.0" type="line" smooth="yes"/>
      <point x="832.0" y="1344.0"/>
      <point x="899" y="1275"/>
      <point x="904" y="1237" type="qcurve" smooth="yes"/>
      <point x="909" y="1200"/>
      <point x="866" y="1106"/>
      <point x="821" y="1115" type="qcurve" smooth="yes"/>
      <point x="517.0" y="1163.0" type="line"/>
      <point x="515.0" y="1160.0" type="line"/>
      <point x="765.0" y="994.0" type="line" smooth="yes"/>
      <point x="806" y="967"/>
      <point x="765" y="868"/>
      <point x="736" y="843" type="qcurve" smooth="yes"/>
      <point x="708" y="819"/>
      <point x="608" y="821"/>
      <point x="593" y="867" type="qcurve" smooth="yes"/>
      <point x="504.0" y="1147.0" type="line"/>
      <point x="501.0" y="1145.0" type="line"/>
      <point x="482.0" y="824.0" type="line" smooth="yes"/>
      <point x="480.0" y="772.0"/>
      <point x="380" y="769"/>
    </contour>
  </outline>
</glyph>
<glyph name="comma" format="2">
  <advance width="507"/>
  <unicode hex="002C"/>
  <outline>
    <contour>
      <point x="42.0" y="-273.0" type="line"/>
      <point x="127.0" y="-203.0"/>
      <point x="235.0" y="-75.0"/>
      <point x="264.0" y="-19.0" type="qcurve"/>
      <point x="151.0" y="-21.0"/>
      <point x="35.0" y="82.0"/>
      <point x="35.0" y="172.0" type="qcurve" smooth="yes"/>
      <point x="35.0" y="247.0"/>
      <point x="147.0" y="362.0"/>
      <point x="232.0" y="362.0" type="qcurve" smooth="yes"/>
      <point x="320.0" y="362.0"/>
      <point x="433.0" y="267.0"/>
      <point x="433.0" y="145.0" type="qcurve" smooth="yes"/>
      <point x="433.0" y="11.0"/>
      <point x="246.0" y="-230.0"/>
      <point x="73.0" y="-319.0" type="qcurve"/>
    </contour>
  </outline>
</glyph>
<glyph name="period" format="2">
  <advance width="507"/>
  <unicode hex="002E"/>
  <outline>
    <contour>
      <point x="44.0" y="166.0" type="qcurve" smooth="yes"/>
      <point x="44.0" y="242.0"/>
      <point x="155.0" y="353.0"/>
      <point x="243.0" y="353.0" type="qcurve" smooth="yes"/>
      <point x="329.0" y="353.0"/>
      <point x="442.0" y="242.0"/>
      <point x="442.0" y="166.0" type="qcurve" smooth="yes"/>
      <point x="442.0" y="90.0"/>
      <point x="329.0" y="-22.0"/>
      <point x="243.0" y="-22.0" type="qcurve" smooth="yes"/>
      <point x="155.0" y="-22.0"/>
      <point x="44.0" y="90.0"/>
    </contour>
  </outline>
</glyph>
<glyph name="slash" format="2">
  <advance width="536"/>
  <unicode hex="002F"/>
  <outline>
    <contour>
      <point x="-148.0" y="-144.0" type="line"/>
      <point x="467.0" y="1534.0" type="line"/>
      <point x="679.0" y="1464.0" type="line"/>
      <point x="66.0" y="-213.0" type="line"/>
    </contour>
  </outline>
</glyph>
<glyph name="zero" format="2">
  <advance width="1147"/>
  <unicode hex="0030"/>
  <outline>
    <contour>
      <point x="114" y="872" type="qcurve" smooth="yes"/>
      <point x="199" y="1207"/>
      <point x="540.0" y="1533.0"/>
      <point x="779" y="1505" type="qcurve" smooth="yes"/>
      <point x="1015" y="1478"/>
      <point x="1184.0" y="1007.0"/>
      <point x="1112.0" y="697.0" type="qcurve" smooth="yes"/>
      <point x="1032.0" y="356.0"/>
      <point x="671" y="-52"/>
      <point x="421" y="-22" type="qcurve" smooth="yes"/>
      <point x="188.0" y="6.0"/>
      <point x="23.0" y="512.0"/>
    </contour>
    <contour>
      <point x="564" y="805" type="qcurve" smooth="yes"/>
      <point x="412" y="166"/>
      <point x="387" y="46"/>
      <point x="430" y="39" type="qcurve" smooth="yes"/>
      <point x="475" y="32"/>
      <point x="514" y="145"/>
      <point x="660" y="777" type="qcurve"/>
      <point x="787" y="1324"/>
      <point x="802" y="1433"/>
      <point x="758.0" y="1440.0" type="qcurve" smooth="yes"/>
      <point x="719" y="1446"/>
      <point x="693" y="1347"/>
    </contour>
  </outline>
</glyph>
<glyph name="one" format="2">
  <advance width="817"/>
  <unicode hex="0031"/>
  <outline>
    <contour>
      <point x="177.0" y="25.0" type="line"/>
      <point x="205.0" y="59.0"/>
      <point x="234.0" y="151.0"/>
      <point x="263.0" y="314.0" type="qcurve" smooth="yes"/>
      <point x="433.0" y="1035.0" type="line"/>
      <point x="489.0" y="1284.0" type="line"/>
      <point x="163.0" y="1132.0" type="line"/>
      <point x="128.0" y="1232.0" type="line"/>
      <point x="829.0" y="1527.0" type="line"/>
      <point x="964.0" y="1443.0" type="line"/>
      <point x="941.0" y="1401.0"/>
      <point x="926.0" y="1303.0"/>
      <point x="911.0" y="1235.0" type="qcurve" smooth="yes"/>
      <point x="783.0" y="714.0" type="line"/>
      <point x="668.0" y="143.0" type="line"/>
      <point x="299.0" y="-33.0" type="line"/>
    </contour>
  </outline>
</glyph>
<glyph name="two" format="2">
  <advance width="1038"/>
  <unicode hex="0032"/>
  <outline>
    <contour>
      <point x="-3.0" y="12.0" type="qcurve"/>
      <point x="-44.0" y="69.0" type="line"/>
      <point x="99.0" y="198.0" type="line" smooth="yes"/>
      <point x="193.0" y="292.0"/>
      <point x="654.0" y="865.0"/>
      <point x="674.0" y="1066.0" type="qcurve" smooth="yes"/>
      <point x="684.0" y="1187.0"/>
      <point x="615.0" y="1293.0"/>
      <point x="478.0" y="1293.0" type="qcurve" smooth="yes"/>
      <point x="404.0" y="1293.0"/>
      <point x="271.0" y="1204.0"/>
      <point x="228.0" y="1147.0" type="qcurve"/>
      <point x="218.0" y="1228.0" type="line"/>
      <point x="287.0" y="1364.0"/>
      <point x="493.0" y="1503.0"/>
      <point x="660.0" y="1503.0" type="qcurve" smooth="yes"/>
      <point x="868.0" y="1503.0"/>
      <point x="1076.0" y="1327.0"/>
      <point x="1076.0" y="1186.0" type="qcurve" smooth="yes"/>
      <point x="1076.0" y="913.0"/>
      <point x="500.0" y="370.0"/>
      <point x="422.0" y="329.0" type="qcurve"/>
      <point x="423.0" y="327.0" type="line"/>
      <point x="479.0" y="329.0"/>
      <point x="554.0" y="330.0"/>
      <point x="610.0" y="332.0" type="qcurve"/>
      <point x="751.0" y="292.0"/>
      <point x="748.854" y="280.363"/>
      <point x="857.0" y="248.0" type="qcurve"/>
      <point x="932.0" y="391.0" type="line"/>
      <point x="1002.0" y="369.0" type="line"/>
      <point x="844.0" y="-26.0" type="line"/>
      <point x="651.0" y="39.0"/>
      <point x="486.0" y="91.0"/>
      <point x="406.0" y="98.0" type="qcurve" smooth="yes"/>
      <point x="319.0" y="103.0"/>
      <point x="61.0" y="50.0"/>
    </contour>
  </outline>
</glyph>
<glyph name="three" format="2">
  <advance width="1017"/>
  <unicode hex="0033"/>
  <outline>
    <contour>
      <point x="-123" y="236.0" type="qcurve" smooth="yes"/>
      <point x="-123" y="312"/>
      <point x="-38.0" y="376.0"/>
      <point x="20" y="376.0" type="qcurve" smooth="yes"/>
      <point x="76" y="376.0" type="line"/>
      <point x="66" y="337.0"/>
      <point x="49" y="258.0"/>
      <point x="52" y="225.0" type="qcurve" smooth="yes"/>
      <point x="60" y="151.0"/>
      <point x="160" y="55"/>
      <point x="261" y="55" type="qcurve" smooth="yes"/>
      <point x="358" y="55"/>
      <point x="468" y="199"/>
      <point x="502" y="452.0" type="qcurve" smooth="yes"/>
      <point x="528" y="648"/>
      <point x="435" y="767"/>
      <point x="353" y="765.0" type="qcurve" smooth="yes"/>
      <point x="254" y="763.0" type="line"/>
      <point x="258" y="838.0" type="line"/>
      <point x="325" y="842.0" type="line" smooth="yes"/>
      <point x="470" y="851"/>
      <point x="584" y="983.0"/>
      <point x="605" y="1119.0" type="qcurve" smooth="yes"/>
      <point x="624" y="1241"/>
      <point x="547" y="1355.0"/>
      <point x="459" y="1355.0" type="qcurve" smooth="yes"/>
      <point x="367" y="1356.0"/>
      <point x="231" y="1262.0"/>
      <point x="180" y="1190.0" type="qcurve"/>
      <point x="153" y="1290.0" type="line"/>
      <point x="217" y="1369.0"/>
      <point x="482" y="1505.0"/>
      <point x="670" y="1505.0" type="qcurve" smooth="yes"/>
      <point x="861" y="1505"/>
      <point x="1044" y="1316.0"/>
      <point x="1030" y="1170.0" type="qcurve" smooth="yes"/>
      <point x="1016" y="1020.0"/>
      <point x="840" y="854.0"/>
      <point x="681" y="826.0" type="qcurve"/>
      <point x="679" y="819.0" type="line"/>
      <point x="826" y="783.0"/>
      <point x="975" y="589.0"/>
      <point x="957" y="435" type="qcurve" smooth="yes"/>
      <point x="935" y="252.0"/>
      <point x="601" y="-23.0"/>
      <point x="326" y="-22" type="qcurve" smooth="yes"/>
      <point x="120" y="-22.0"/>
      <point x="-123" y="124"/>
    </contour>
  </outline>
</glyph>
<glyph name="four" format="2">
  <advance width="1081"/>
  <unicode hex="0034"/>
  <outline>
    <contour>
      <point x="-35" y="416" type="line"/>
      <point x="-48" y="511" type="line"/>
      <point x="942" y="1553" type="line"/>
      <point x="1129" y="1439" type="line"/>
      <point x="1133" y="1379" type="line"/>
      <point x="922" y="523" type="line"/>
      <point x="915" y="496" type="line"/>
      <point x="846" y="200" type="line"/>
      <point x="859" y="79" type="line"/>
      <point x="457" y="-32" type="line"/>
      <point x="370" y="14" type="line"/>
      <point x="499" y="498" type="line"/>
      <point x="506" y="523" type="line"/>
      <point x="640" y="1124" type="line"/>
      <point x="114" y="567" type="line"/>
      <point x="117" y="557" type="line"/>
      <point x="739" y="560" type="line"/>
      <point x="1084" y="570" type="line"/>
      <point x="1043" y="413" type="line"/>
      <point x="718" y="419" type="line"/>
    </contour>
  </outline>
</glyph>
<glyph name="five" format="2">
  <advance width="1055"/>
  <unicode hex="0035"/>
  <outline>
    <contour>
      <point x="-77" y="203" type="qcurve" smooth="yes"/>
      <point x="-77" y="259"/>
      <point x="-4" y="346"/>
      <point x="56" y="346" type="qcurve"/>
      <point x="101" y="346" type="line"/>
      <point x="101" y="261" type="line" smooth="yes"/>
      <point x="101" y="154"/>
      <point x="210" y="55"/>
      <point x="292" y="55" type="qcurve" smooth="yes"/>
      <point x="382" y="55"/>
      <point x="478" y="257"/>
      <point x="523" y="483" type="qcurve" smooth="yes"/>
      <point x="570" y="717"/>
      <point x="365" y="836"/>
      <point x="258" y="788" type="qcurve" smooth="yes"/>
      <point x="195" y="760" type="line"/>
      <point x="139" y="816" type="line"/>
      <point x="280" y="1467" type="line"/>
      <point x="310" y="1500" type="line"/>
      <point x="1044" y="1500" type="line"/>
      <point x="962" y="1110" type="line"/>
      <point x="291" y="1110" type="line"/>
      <point x="281" y="1099" type="line"/>
      <point x="264" y="1019"/>
      <point x="238" y="891"/>
      <point x="225" y="849" type="qcurve"/>
      <point x="479" y="950" type="line"/>
      <point x="751" y="973"/>
      <point x="1035" y="739"/>
      <point x="1004" y="507" type="qcurve" smooth="yes"/>
      <point x="977" y="302"/>
      <point x="596" y="-24"/>
      <point x="326" y="-24" type="qcurve" smooth="yes"/>
      <point x="96" y="-24"/>
      <point x="-77" y="116"/>
    </contour>
  </outline>
</glyph>
<glyph name="six" format="2">
  <advance width="1110"/>
  <unicode hex="0036"/>
  <outline>
    <contour>
      <point x="43" y="699" type="qcurve" smooth="yes"/>
      <point x="136" y="1051"/>
      <point x="786" y="1494"/>
      <point x="1195" y="1551" type="qcurve"/>
      <point x="1188" y="1482" type="line"/>
      <point x="847" y="1391"/>
      <point x="601" y="997"/>
      <point x="479" y="446" type="qcurve" smooth="yes"/>
      <point x="427" y="210"/>
      <point x="406" y="44"/>
      <point x="455" y="44" type="qcurve" smooth="yes"/>
      <point x="507" y="44"/>
      <point x="586" y="307"/>
      <point x="621" y="460" type="qcurve" smooth="yes"/>
      <point x="667" y="664"/>
      <point x="634" y="754"/>
      <point x="597" y="754" type="qcurve" smooth="yes"/>
      <point x="577" y="754"/>
      <point x="537" y="736"/>
      <point x="502" y="716" type="qcurve"/>
      <point x="499" y="783" type="line"/>
      <point x="598" y="838"/>
      <point x="751" y="886"/>
      <point x="804" y="886" type="qcurve" smooth="yes"/>
      <point x="953" y="886"/>
      <point x="1119" y="680"/>
      <point x="1068" y="464" type="qcurve" smooth="yes"/>
      <point x="1017" y="249"/>
      <point x="688" y="-39"/>
      <point x="426" y="-18" type="qcurve" smooth="yes"/>
      <point x="218" y="-1"/>
      <point x="-49" y="347"/>
    </contour>
  </outline>
</glyph>
<glyph name="seven" format="2">
  <advance width="955"/>
  <unicode hex="0037"/>
  <outline>
    <contour>
      <point x="91.0" y="1014.0" type="line"/>
      <point x="222.0" y="1500.0" type="line"/>
      <point x="1116.0" y="1500.0" type="line"/>
      <point x="1148.0" y="1396.0" type="line"/>
      <point x="908.0" y="1156.0"/>
      <point x="423.0" y="427.0"/>
      <point x="324.0" y="3.0" type="qcurve"/>
      <point x="68.0" y="-22.0" type="line"/>
      <point x="50.0" y="9.0" type="line"/>
      <point x="135.0" y="293.0"/>
      <point x="502.0" y="766.0"/>
      <point x="789.0" y="1089.0" type="qcurve"/>
      <point x="778.0" y="1108.0" type="line"/>
      <point x="195.0" y="1108.0" type="line"/>
      <point x="170.0" y="1014.0" type="line"/>
    </contour>
  </outline>
</glyph>
<glyph name="eight" format="2">
  <advance width="1083"/>
  <unicode hex="0038"/>
  <outline>
    <contour>
      <point x="-25" y="388" type="qcurve" smooth="yes"/>
      <point x="2" y="560"/>
      <point x="276" y="744"/>
      <point x="496" y="825" type="qcurve"/>
      <point x="525" y="794" type="line"/>
      <point x="437" y="720"/>
      <point x="356" y="568"/>
      <point x="314" y="357" type="qcurve" smooth="yes"/>
      <point x="279" y="179"/>
      <point x="332" y="42"/>
      <point x="390" y="42" type="qcurve" smooth="yes"/>
      <point x="455" y="42"/>
      <point x="527" y="118"/>
      <point x="574" y="284" type="qcurve" smooth="yes"/>
      <point x="611" y="414"/>
      <point x="531" y="559"/>
      <point x="418" y="692" type="qcurve" smooth="yes"/>
      <point x="300" y="831"/>
      <point x="217" y="1036"/>
      <point x="250" y="1171" type="qcurve" smooth="yes"/>
      <point x="284" y="1308"/>
      <point x="514" y="1508"/>
      <point x="759" y="1508" type="qcurve" smooth="yes"/>
      <point x="971" y="1508"/>
      <point x="1117" y="1327"/>
      <point x="1093" y="1185" type="qcurve" smooth="yes"/>
      <point x="1070" y="1054"/>
      <point x="878" y="914"/>
      <point x="680" y="841" type="qcurve"/>
      <point x="658" y="869" type="line"/>
      <point x="723" y="930"/>
      <point x="781" y="1098"/>
      <point x="811" y="1231" type="qcurve" smooth="yes"/>
      <point x="838" y="1349"/>
      <point x="809" y="1442"/>
      <point x="761" y="1442" type="qcurve" smooth="yes"/>
      <point x="713" y="1442"/>
      <point x="670" y="1368"/>
      <point x="655" y="1279" type="qcurve" smooth="yes"/>
      <point x="637" y="1174"/>
      <point x="697" y="1039"/>
      <point x="810" y="921" type="qcurve" smooth="yes"/>
      <point x="950" y="776"/>
      <point x="1043" y="550"/>
      <point x="1005" y="381" type="qcurve" smooth="yes"/>
      <point x="959" y="174"/>
      <point x="642" y="-23"/>
      <point x="407" y="-23" type="qcurve" smooth="yes"/>
      <point x="179" y="-23"/>
      <point x="-50" y="231"/>
    </contour>
  </outline>
</glyph>
<glyph name="colon" format="2">
  <advance width="488"/>
  <unicode hex="003A"/>
  <outline>
    <contour>
      <point x="-46" y="166" type="qcurve" smooth="yes"/>
      <point x="-46" y="242"/>
      <point x="65" y="353"/>
      <point x="153" y="353" type="qcurve" smooth="yes"/>
      <point x="239" y="353"/>
      <point x="352" y="242"/>
      <point x="352" y="166" type="qcurve" smooth="yes"/>
      <point x="352" y="90"/>
      <point x="239" y="-22"/>
      <point x="153" y="-22" type="qcurve" smooth="yes"/>
      <point x="65" y="-22"/>
      <point x="-46" y="90"/>
    </contour>
    <contour>
      <point x="79" y="755" type="qcurve" smooth="yes"/>
      <point x="79" y="831"/>
      <point x="190" y="942"/>
      <point x="278" y="942" type="qcurve" smooth="yes"/>
      <point x="364" y="942"/>
      <point x="477" y="831"/>
      <point x="477" y="755" type="qcurve" smooth="yes"/>
      <point x="477" y="679"/>
      <point x="364" y="567"/>
      <point x="278" y="567" type="qcurve" smooth="yes"/>
      <point x="190" y="567"/>
      <point x="79" y="679"/>
    </contour>
  </outline>
</glyph>
<glyph name="semicolon" format="2">
  <advance width="488"/>
  <unicode hex="003B"/>
  <outline>
    <contour>
      <point x="46.0" y="715.0" type="qcurve" smooth="yes"/>
      <point x="46.0" y="791.0"/>
      <point x="157.0" y="902.0"/>
      <point x="245.0" y="902.0" type="qcurve" smooth="yes"/>
      <point x="331.0" y="902.0"/>
      <point x="444.0" y="791.0"/>
      <point x="444.0" y="715.0" type="qcurve" smooth="yes"/>
      <point x="444.0" y="639.0"/>
      <point x="331.0" y="527.0"/>
      <point x="245.0" y="527.0" type="qcurve" smooth="yes"/>
      <point x="157.0" y="527.0"/>
      <point x="46.0" y="639.0"/>
    </contour>
    <contour>
      <point x="-36.0" y="-273.0" type="line"/>
      <point x="49.0" y="-203.0"/>
      <point x="157.0" y="-75.0"/>
      <point x="186.0" y="-19.0" type="qcurve"/>
      <point x="73.0" y="-21.0"/>
      <point x="-43.0" y="82.0"/>
      <point x="-43.0" y="172.0" type="qcurve" smooth="yes"/>
      <point x="-43.0" y="247.0"/>
      <point x="69.0" y="362.0"/>
      <point x="154.0" y="362.0" type="qcurve" smooth="yes"/>
      <point x="242.0" y="362.0"/>
      <point x="355.0" y="267.0"/>
      <point x="355.0" y="145.0" type="qcurve" smooth="yes"/>
      <point x="355.0" y="11.0"/>
      <point x="168.0" y="-230.0"/>
      <point x="-5.0" y="-319.0" type="qcurve"/>
    </contour>
  </outline>
</glyph>
<glyph name="question" format="2">
  <advance width="949"/>
  <unicode hex="003F"/>
  <outline>
    <contour>
      <point x="136" y="1225" type="qcurve" smooth="yes"/>
      <point x="145" y="1340"/>
      <point x="369" y="1521"/>
      <point x="569" y="1521.0" type="qcurve" smooth="yes"/>
      <point x="803" y="1521.0"/>
      <point x="1007" y="1281"/>
      <point x="990" y="1124" type="qcurve" smooth="yes"/>
      <point x="974" y="984"/>
      <point x="797" y="804"/>
      <point x="674" y="752" type="qcurve" smooth="yes"/>
      <point x="535" y="693"/>
      <point x="324" y="605"/>
      <point x="308" y="523" type="qcurve" smooth="yes"/>
      <point x="293" y="466" type="line"/>
      <point x="208" y="476" type="line"/>
      <point x="217" y="560" type="line" smooth="yes"/>
      <point x="231" y="687"/>
      <point x="316" y="823"/>
      <point x="406" y="919" type="qcurve" smooth="yes"/>
      <point x="458" y="974"/>
      <point x="539" y="1097"/>
      <point x="571" y="1200" type="qcurve" smooth="yes"/>
      <point x="604" y="1305"/>
      <point x="535" y="1443"/>
      <point x="442" y="1444" type="qcurve" smooth="yes"/>
      <point x="385" y="1445"/>
      <point x="310" y="1402"/>
      <point x="303" y="1357" type="qcurve" smooth="yes"/>
      <point x="295" y="1306"/>
      <point x="410" y="1198"/>
      <point x="420" y="1144" type="qcurve" smooth="yes"/>
      <point x="429" y="1094"/>
      <point x="356" y="1001"/>
      <point x="280" y="1001" type="qcurve" smooth="yes"/>
      <point x="201" y="1001"/>
      <point x="127" y="1130"/>
    </contour>
    <contour>
      <point x="21" y="159" type="qcurve" smooth="yes"/>
      <point x="25" y="242"/>
      <point x="124" y="343"/>
      <point x="209" y="343" type="qcurve" smooth="yes"/>
      <point x="288" y="343"/>
      <point x="380" y="238"/>
      <point x="373" y="159" type="qcurve" smooth="yes"/>
      <point x="369" y="75"/>
      <point x="269" y="-23"/>
      <point x="184" y="-23" type="qcurve" smooth="yes"/>
      <point x="105" y="-23"/>
      <point x="15" y="79"/>
    </contour>
  </outline>
</glyph>
<glyph name="at" format="2">
  <advance width="1461"/>
  <unicode hex="0040"/>
  <outline>
    <contour>
      <point x="320" y="654" type="qcurve" smooth="yes"/>
      <point x="379" y="907"/>
      <point x="661" y="1186"/>
      <point x="782" y="1187" type="qcurve" smooth="yes"/>
      <point x="845" y="1188"/>
      <point x="887" y="1146"/>
      <point x="900" y="1119" type="qcurve"/>
      <point x="990" y="1198" type="line"/>
      <point x="1043" y="1198" type="line"/>
      <point x="1182" y="1084" type="line"/>
      <point x="1064" y="610" type="line"/>
      <point x="1026" y="415" type="line" smooth="yes"/>
      <point x="1020" y="381"/>
      <point x="1021" y="339"/>
      <point x="1045" y="339" type="qcurve" smooth="yes"/>
      <point x="1143" y="340"/>
      <point x="1309" y="638"/>
      <point x="1332" y="833" type="qcurve" smooth="yes"/>
      <point x="1359" y="1057"/>
      <point x="1144" y="1465"/>
      <point x="870" y="1461" type="qcurve" smooth="yes"/>
      <point x="646" y="1459"/>
      <point x="243" y="1076"/>
      <point x="168" y="730" type="qcurve" smooth="yes"/>
      <point x="84" y="343"/>
      <point x="349" y="-39"/>
      <point x="593" y="-39" type="qcurve" smooth="yes"/>
      <point x="739" y="-39"/>
      <point x="933" y="36"/>
      <point x="1018" y="98" type="qcurve"/>
      <point x="1045" y="46" type="line"/>
      <point x="948" y="-21"/>
      <point x="645" y="-129"/>
      <point x="592" y="-129" type="qcurve" smooth="yes"/>
      <point x="288" y="-129"/>
      <point x="8" y="309"/>
      <point x="83" y="708" type="qcurve" smooth="yes"/>
      <point x="150" y="1070"/>
      <point x="622" y="1521"/>
      <point x="876" y="1521" type="qcurve" smooth="yes"/>
      <point x="1169" y="1521"/>
      <point x="1429" y="1102"/>
      <point x="1392" y="835" type="qcurve" smooth="yes"/>
      <point x="1356" y="579"/>
      <point x="1109" y="247"/>
      <point x="944" y="245" type="qcurve" smooth="yes"/>
      <point x="862" y="244"/>
      <point x="763" y="302"/>
      <point x="740" y="399" type="qcurve"/>
      <point x="713" y="332"/>
      <point x="611" y="246"/>
      <point x="534" y="245" type="qcurve" smooth="yes"/>
      <point x="425" y="244"/>
      <point x="276" y="469"/>
    </contour>
    <contour>
      <point x="676" y="770" type="qcurve" smooth="yes"/>
      <point x="617" y="535"/>
      <point x="583" y="343"/>
      <point x="624" y="343" type="qcurve" smooth="yes"/>
      <point x="672" y="344"/>
      <point x="729" y="508"/>
      <point x="764" y="647" type="qcurve" smooth="yes"/>
      <point x="866" y="1051" type="line"/>
      <point x="869" y="1083"/>
      <point x="853" y="1116"/>
      <point x="833" y="1116" type="qcurve" smooth="yes"/>
      <point x="780" y="1115"/>
      <point x="716" y="930"/>
    </contour>
  </outline>
</glyph>
<glyph name="L" format="2">
  <advance width="970"/>
  <unicode hex="004C"/>
  <outline>
    <contour>
      <point x="-122" y="0" type="line"/>
      <point x="-120" y="53" type="line"/>
      <point x="-58" y="66" type="line"/>
      <point x="109" y="838" type="line"/>
      <point x="235" y="1438" type="line"/>
      <point x="167" y="1448" type="line"/>
      <point x="177" y="1500" type="line"/>
      <point x="798" y="1500" type="line"/>
      <point x="783" y="1444" type="line"/>
      <point x="713" y="1436" type="line"/>
      <point x="565" y="753" type="line"/>
      <point x="418" y="65" type="line"/>
      <point x="449" y="54" type="line"/>
      <point x="662" y="54" type="line"/>
      <point x="864" y="453" type="line"/>
      <point x="923" y="453" type="line"/>
      <point x="805" y="0" type="line"/>
    </contour>
  </outline>
</glyph>
<glyph name="N" format="2">
  <advance width="1070"/>
  <unicode hex="004E"/>
  <outline>
    <contour>
      <point x="-123" y="0" type="line"/>
      <point x="-124" y="51" type="line"/>
      <point x="-33" y="84" type="line"/>
      <point x="107" y="755" type="line"/>
      <point x="241" y="1408" type="line"/>
      <point x="181" y="1449" type="line"/>
      <point x="194" y="1500" type="line"/>
      <point x="702" y="1500" type="line"/>
      <point x="801" y="832" type="line"/>
      <point x="860" y="433" type="line"/>
      <point x="934" y="806" type="line"/>
      <point x="1057" y="1419" type="line"/>
      <point x="947" y="1447" type="line"/>
      <point x="958" y="1500" type="line"/>
      <point x="1227" y="1500" type="line"/>
      <point x="1216" y="1447" type="line"/>
      <point x="1111" y="1419" type="line"/>
      <point x="991" y="789" type="line"/>
      <point x="839" y="-4" type="line"/>
      <point x="467" y="-4" type="line"/>
      <point x="360" y="730" type="line"/>
      <point x="275" y="1307" type="line"/>
      <point x="161" y="737" type="line"/>
      <point x="24" y="84" type="line"/>
      <point x="116" y="51" type="line"/>
      <point x="105" y="0" type="line"/>
    </contour>
  </outline>
</glyph>
<glyph name="S" format="2">
  <advance width="952"/>
  <unicode hex="0053"/>
  <outline>
    <contour>
      <point x="-109" y="17" type="line"/>
      <point x="-5" y="454" type="line"/>
      <point x="57" y="454" type="line"/>
      <point x="55" y="302" type="line" smooth="yes"/>
      <point x="53" y="183"/>
      <point x="194" y="39"/>
      <point x="287" y="39" type="qcurve" smooth="yes"/>
      <point x="379" y="39"/>
      <point x="468" y="122"/>
      <point x="491" y="218" type="qcurve" smooth="yes"/>
      <point x="520" y="352"/>
      <point x="387" y="552"/>
      <point x="271" y="663" type="qcurve" smooth="yes"/>
      <point x="145" y="783"/>
      <point x="82" y="1083"/>
      <point x="146" y="1224" type="qcurve" smooth="yes"/>
      <point x="211" y="1376"/>
      <point x="462" y="1515"/>
      <point x="635" y="1515" type="qcurve" smooth="yes"/>
      <point x="735" y="1515"/>
      <point x="861" y="1452"/>
      <point x="898" y="1417" type="qcurve"/>
      <point x="945" y="1482" type="line"/>
      <point x="1014" y="1471" type="line"/>
      <point x="913" y="1067" type="line"/>
      <point x="844" y="1067" type="line"/>
      <point x="848" y="1220" type="line" smooth="yes"/>
      <point x="851" y="1329"/>
      <point x="740" y="1437"/>
      <point x="670" y="1437" type="qcurve" smooth="yes"/>
      <point x="596" y="1437"/>
      <point x="497" y="1376"/>
      <point x="470" y="1302" type="qcurve" smooth="yes"/>
      <point x="439" y="1216"/>
      <point x="531" y="1042"/>
      <point x="686" y="911" type="qcurve" smooth="yes"/>
      <point x="833" y="787"/>
      <point x="916" y="518"/>
      <point x="877" y="345" type="qcurve" smooth="yes"/>
      <point x="837" y="166"/>
      <point x="579" y="-26"/>
      <point x="364" y="-26" type="qcurve" smooth="yes"/>
      <point x="229" y="-26"/>
      <point x="64" y="57"/>
      <point x="24" y="111" type="qcurve"/>
      <point x="-44" y="-2" type="line"/>
    </contour>
  </outline>
</glyph>
<glyph name="T" format="2">
  <advance width="1097"/>
  <unicode hex="0054"/>
  <outline>
    <contour>
      <point x="142" y="1145" type="line"/>
      <point x="211" y="1500" type="line"/>
      <point x="1242" y="1500" type="line"/>
      <point x="1173" y="1145" type="line"/>
      <point x="1101" y="1145" type="line"/>
      <point x="1093" y="1446" type="line"/>
      <point x="992" y="1446" type="line"/>
      <point x="974" y="1419" type="line"/>
      <point x="831" y="754" type="line"/>
      <point x="693" y="65" type="line"/>
      <point x="774" y="46" type="line"/>
      <point x="763" y="0" type="line"/>
      <point x="104" y="0" type="line"/>
      <point x="100" y="47" type="line"/>
      <point x="192" y="64" type="line"/>
      <point x="347" y="755" type="line"/>
      <point x="476" y="1419" type="line"/>
      <point x="457" y="1446" type="line"/>
      <point x="353" y="1446" type="line"/>
      <point x="214" y="1145" type="line"/>
    </contour>
  </outline>
</glyph>
<glyph name="X" format="2">
  <advance width="969"/>
  <unicode hex="0058"/>
  <outline>
    <contour>
      <point x="-160" y="0" type="line"/>
      <point x="-146" y="51" type="line"/>
      <point x="-30" y="77" type="line"/>
      <point x="447" y="803" type="line"/>
      <point x="563" y="803" type="line"/>
      <point x="904" y="1406" type="line"/>
      <point x="824" y="1446" type="line"/>
      <point x="838" y="1500" type="line"/>
      <point x="1105" y="1500" type="line"/>
      <point x="1091" y="1446" type="line"/>
      <point x="981" y="1415" type="line"/>
      <point x="605" y="757" type="line"/>
      <point x="490" y="757" type="line"/>
      <point x="52" y="86" type="line"/>
      <point x="158" y="51" type="line"/>
      <point x="147" y="0" type="line"/>
    </contour>
    <contour>
      <point x="125" y="1445" type="line"/>
      <point x="139" y="1500" type="line"/>
      <point x="749" y="1500" type="line"/>
      <point x="745" y="1445" type="line"/>
      <point x="667" y="1424" type="line"/>
      <point x="737" y="784" type="line"/>
      <point x="814" y="71" type="line"/>
      <point x="905" y="51" type="line"/>
      <point x="891" y="0" type="line"/>
      <point x="255" y="0" type="line"/>
      <point x="269" y="51" type="line"/>
      <point x="336" y="70" type="line"/>
      <point x="265" y="749" type="line"/>
      <point x="194" y="1420" type="line"/>
    </contour>
  </outline>
</glyph>
<glyph name="Y" format="2">
  <advance width="970"/>
  <unicode hex="0059"/>
  <outline>
    <contour>
      <point x="137" y="1447" type="line"/>
      <point x="148" y="1500" type="line"/>
      <point x="773" y="1500" type="line"/>
      <point x="762" y="1447" type="line"/>
      <point x="672" y="1428" type="line"/>
      <point x="683" y="1052" type="line"/>
      <point x="692" y="732" type="line"/>
      <point x="828" y="1069" type="line"/>
      <point x="968" y="1417" type="line"/>
      <point x="869" y="1447" type="line"/>
      <point x="880" y="1500" type="line"/>
      <point x="1126" y="1500" type="line"/>
      <point x="1115" y="1447" type="line"/>
      <point x="1037" y="1415" type="line"/>
      <point x="885" y="1042" type="line"/>
      <point x="720" y="638" type="line"/>
      <point x="611" y="63" type="line"/>
      <point x="684" y="46" type="line"/>
      <point x="680" y="0" type="line"/>
      <point x="16" y="0" type="line"/>
      <point x="26" y="46" type="line"/>
      <point x="113" y="63" type="line"/>
      <point x="230" y="630" type="line"/>
      <point x="216" y="1026" type="line"/>
      <point x="202" y="1409" type="line"/>
    </contour>
  </outline>
</glyph>
<glyph name="Z" format="2">
  <advance width="1056"/>
  <unicode hex="005A"/>
  <outline>
    <contour>
      <point x="-37" y="0" type="line"/>
      <point x="-52" y="52" type="line"/>
      <point x="620" y="1423" type="line"/>
      <point x="618" y="1437" type="line"/>
      <point x="364" y="1437" type="line"/>
      <point x="207" y="1107" type="line"/>
      <point x="146" y="1107" type="line"/>
      <point x="228" y="1500" type="line"/>
      <point x="1121" y="1500" type="line"/>
      <point x="1114" y="1443" type="line"/>
      <point x="433" y="78" type="line"/>
      <point x="438" y="64" type="line"/>
      <point x="718" y="64" type="line"/>
      <point x="901" y="413" type="line"/>
      <point x="959" y="413" type="line"/>
      <point x="867" y="0" type="line"/>
    </contour>
  </outline>
</glyph>
<glyph name="bracketleft" format="2">
  <advance width="694"/>
  <unicode hex="005B"/>
  <outline>
    <contour>
      <point x="132" y="711" type="line"/>
      <point x="268" y="1439" type="line"/>
      <point x="252" y="1459" type="line"/>
      <point x="266" y="1500" type="line"/>
      <point x="829" y="1500" type="line"/>
      <point x="818" y="1454" type="line"/>
      <point x="702" y="1436" type="line"/>
      <point x="525" y="711" type="line"/>
      <point x="376" y="-81" type="line"/>
      <point x="518" y="-100" type="line"/>
      <point x="504" y="-146" type="line"/>
      <point x="-60" y="-151" type="line"/>
      <point x="-68" y="-111" type="line"/>
      <point x="-36" y="-100" type="line"/>
    </contour>
  </outline>
</glyph>
<glyph name="backslash" format="2">
  <advance width="694"/>
  <unicode hex="005C"/>
  <outline>
    <contour>
      <point x="273.0" y="1568.0" type="line"/>
      <point x="497.0" y="1566.0" type="line"/>
      <point x="463.0" y="-460.0" type="line"/>
      <point x="244.0" y="-460.0" type="line"/>
    </contour>
  </outline>
</glyph>
<glyph name="bracketright" format="2">
  <advance width="655"/>
  <unicode hex="005D"/>
  <outline>
    <contour>
      <point x="-168" y="-146" type="line"/>
      <point x="-157" y="-100" type="line"/>
      <point x="-41" y="-82" type="line"/>
      <point x="136" y="643" type="line"/>
      <point x="285" y="1435" type="line"/>
      <point x="143" y="1454" type="line"/>
      <point x="157" y="1500" type="line"/>
      <point x="721" y="1505" type="line"/>
      <point x="729" y="1465" type="line"/>
      <point x="697" y="1454" type="line"/>
      <point x="529" y="643" type="line"/>
      <point x="393" y="-85" type="line"/>
      <point x="409" y="-105" type="line"/>
      <point x="395" y="-146" type="line"/>
    </contour>
  </outline>
</glyph>
<glyph name="asciicircum" format="2">
  <advance width="857"/>
  <unicode hex="005E"/>
  <outline>
    <contour>
      <point x="212.0" y="1010.0" type="line"/>
      <point x="267.0" y="1083.0"/>
      <point x="610.0" y="1517.0"/>
      <point x="610.0" y="1517.0" type="qcurve"/>
      <point x="610.0" y="1517.0"/>
      <point x="796.0" y="1081.0"/>
      <point x="828.0" y="1011.0" type="qcurve"/>
      <point x="769.0" y="959.0" type="line"/>
      <point x="709.0" y="1056.0"/>
      <point x="552.0" y="1304.0"/>
      <point x="552.0" y="1304.0" type="qcurve"/>
      <point x="552.0" y="1304.0"/>
      <point x="359.0" y="1079.0"/>
      <point x="263.0" y="958.0" type="qcurve"/>
    </contour>
  </outline>
</glyph>
<glyph name="underscore" format="2">
  <advance width="677"/>
  <unicode hex="005F"/>
  <outline>
    <contour>
      <point x="-257.0" y="-602.0" type="line"/>
      <point x="-253.0" y="-426.0" type="line"/>
      <point x="97.0" y="-401.0" type="line"/>
      <point x="599.0" y="-426.0" type="line"/>
      <point x="595.0" y="-602.0" type="line"/>
      <point x="97.0" y="-602.0" type="line"/>
    </contour>
  </outline>
</glyph>
<glyph name="grave" format="2">
  <advance width="896"/>
  <unicode hex="0060"/>
  <outline>
    <contour>
      <point x="276.0" y="1192.0" type="qcurve" smooth="yes"/>
      <point x="519.0" y="1039.0" type="line"/>
      <point x="558.0" y="1083.0" type="line"/>
      <point x="427.0" y="1283.0" type="line" smooth="yes"/>
      <point x="402.0" y="1319.0"/>
      <point x="319.0" y="1383.0"/>
      <point x="285.0" y="1383.0" type="qcurve" smooth="yes"/>
      <point x="265.0" y="1383.0"/>
      <point x="203.0" y="1332.0"/>
      <point x="203.0" y="1301.0" type="qcurve" smooth="yes"/>
      <point x="203.0" y="1277.0"/>
      <point x="239.0" y="1213.0"/>
    </contour>
  </outline>
</glyph>
<glyph name="b" format="2">
  <advance width="1109"/>
  <unicode hex="0062"/>
  <outline>
    <contour>
      <point x="47" y="423" type="qcurve" smooth="yes"/>
      <point x="77" y="594" type="line"/>
      <point x="247" y="1423" type="line"/>
      <point x="95" y="1427" type="line"/>
      <point x="111" y="1497" type="line"/>
      <point x="627" y="1542" type="line"/>
      <point x="667" y="1500" type="line"/>
      <point x="483" y="556" type="line"/>
      <point x="403" y="121" type="line" smooth="yes"/>
      <point x="397" y="90"/>
      <point x="411" y="54"/>
      <point x="442" y="54" type="qcurve" smooth="yes"/>
      <point x="488" y="54"/>
      <point x="558" y="335"/>
      <point x="637" y="688" type="qcurve" smooth="yes"/>
      <point x="647" y="732"/>
      <point x="631" y="795"/>
      <point x="608" y="795" type="qcurve" smooth="yes"/>
      <point x="585" y="795"/>
      <point x="531" y="717"/>
      <point x="495" y="622" type="qcurve"/>
      <point x="479" y="704" type="line"/>
      <point x="551" y="872"/>
      <point x="734" y="991"/>
      <point x="845" y="991" type="qcurve" smooth="yes"/>
      <point x="968" y="991"/>
      <point x="1110" y="799"/>
      <point x="1073" y="574" type="qcurve" smooth="yes"/>
      <point x="1036" y="348"/>
      <point x="724" y="-15"/>
      <point x="456" y="-15" type="qcurve" smooth="yes"/>
      <point x="231" y="-15"/>
      <point x="11" y="216"/>
    </contour>
  </outline>
</glyph>
<glyph name="c" format="2">
  <advance width="911"/>
  <unicode hex="0063"/>
  <outline>
    <contour>
      <point x="17" y="475" type="qcurve" smooth="yes"/>
      <point x="59" y="700"/>
      <point x="370" y="988"/>
      <point x="613" y="988" type="qcurve" smooth="yes"/>
      <point x="775" y="988"/>
      <point x="929" y="860"/>
      <point x="929" y="774" type="qcurve" smooth="yes"/>
      <point x="929" y="700"/>
      <point x="847" y="610"/>
      <point x="785" y="582" type="qcurve"/>
      <point x="736" y="593" type="line"/>
      <point x="739" y="826" type="line" smooth="yes"/>
      <point x="740" y="875"/>
      <point x="706" y="926"/>
      <point x="676" y="926" type="qcurve" smooth="yes"/>
      <point x="637" y="926"/>
      <point x="561" y="789"/>
      <point x="490" y="518" type="qcurve" smooth="yes"/>
      <point x="424" y="269"/>
      <point x="466" y="127"/>
      <point x="523" y="112" type="qcurve" smooth="yes"/>
      <point x="573" y="99"/>
      <point x="726" y="156"/>
      <point x="810" y="255" type="qcurve"/>
      <point x="835" y="238" type="line"/>
      <point x="831" y="198" type="line"/>
      <point x="756" y="101"/>
      <point x="527" y="-21"/>
      <point x="377" y="-21" type="qcurve" smooth="yes"/>
      <point x="163" y="-21"/>
      <point x="-24" y="253"/>
    </contour>
  </outline>
</glyph>
<glyph name="d" format="2">
  <advance width="1118"/>
  <unicode hex="0064"/>
  <outline>
    <contour>
      <point x="-15" y="289" type="qcurve" smooth="yes"/>
      <point x="-20" y="553"/>
      <point x="365" y="954"/>
      <point x="669" y="954" type="qcurve" smooth="yes"/>
      <point x="706" y="954" type="line"/>
      <point x="788" y="1420" type="line"/>
      <point x="638" y="1425" type="line"/>
      <point x="653" y="1498" type="line"/>
      <point x="1182" y="1563" type="line"/>
      <point x="1223" y="1524" type="line"/>
      <point x="1014" y="469" type="line"/>
      <point x="952" y="121" type="line"/>
      <point x="1046" y="136" type="line"/>
      <point x="1038" y="81" type="line"/>
      <point x="627" y="-8" type="line"/>
      <point x="592" y="12" type="line"/>
      <point x="551" y="188" type="line"/>
      <point x="486" y="81"/>
      <point x="356" y="-14"/>
      <point x="228" y="-10" type="qcurve" smooth="yes"/>
      <point x="120" y="-7"/>
      <point x="-12" y="143"/>
    </contour>
    <contour>
      <point x="396" y="193" type="qcurve" smooth="yes"/>
      <point x="396" y="172"/>
      <point x="414" y="157"/>
      <point x="433" y="157" type="qcurve" smooth="yes"/>
      <point x="461" y="157"/>
      <point x="511" y="233"/>
      <point x="571" y="466" type="qcurve" smooth="yes"/>
      <point x="664" y="827" type="line" smooth="yes"/>
      <point x="674" y="867"/>
      <point x="666" y="903"/>
      <point x="646" y="903" type="qcurve" smooth="yes"/>
      <point x="597" y="903"/>
      <point x="396" y="257"/>
    </contour>
  </outline>
</glyph>
<glyph name="e" format="2">
  <advance width="976"/>
  <unicode hex="0065"/>
  <outline>
    <contour>
      <point x="11" y="447" type="qcurve" smooth="yes"/>
      <point x="35" y="673"/>
      <point x="373" y="1009"/>
      <point x="628" y="1009" type="qcurve" smooth="yes"/>
      <point x="800" y="1009"/>
      <point x="966" y="877"/>
      <point x="966" y="756" type="qcurve" smooth="yes"/>
      <point x="966" y="706"/>
      <point x="954" y="647"/>
      <point x="950" y="632" type="qcurve"/>
      <point x="965" y="626" type="line"/>
      <point x="945" y="545" type="line"/>
      <point x="920" y="545"/>
      <point x="760" y="546"/>
      <point x="707" y="547" type="qcurve" smooth="yes"/>
      <point x="479" y="547" type="line"/>
      <point x="488" y="587" type="line"/>
      <point x="615" y="589" type="line"/>
      <point x="610" y="613"/>
      <point x="646" y="764"/>
      <point x="653" y="802" type="qcurve" smooth="yes"/>
      <point x="673" y="908"/>
      <point x="657" y="955"/>
      <point x="634" y="955" type="qcurve" smooth="yes"/>
      <point x="607" y="955"/>
      <point x="560" y="860"/>
      <point x="486" y="541" type="qcurve" smooth="yes"/>
      <point x="424" y="273"/>
      <point x="450" y="131"/>
      <point x="513" y="113" type="qcurve" smooth="yes"/>
      <point x="577" y="95"/>
      <point x="734" y="154"/>
      <point x="839" y="261" type="qcurve"/>
      <point x="863" y="244" type="line"/>
      <point x="859" y="202" type="line"/>
      <point x="767" y="95"/>
      <point x="527" y="-21"/>
      <point x="376" y="-21" type="qcurve" smooth="yes"/>
      <point x="187" y="-21"/>
      <point x="-12" y="232"/>
    </contour>
  </outline>
</glyph>
<glyph name="g" format="2">
  <advance width="1098"/>
  <unicode hex="0067"/>
  <outline>
    <contour>
      <point x="-13" y="285" type="qcurve" smooth="yes"/>
      <point x="-20" y="553"/>
      <point x="368" y="987"/>
      <point x="644" y="987" type="qcurve" smooth="yes"/>
      <point x="702" y="987"/>
      <point x="760" y="948"/>
      <point x="776" y="913" type="qcurve"/>
      <point x="936" y="993" type="line"/>
      <point x="1046" y="987" type="line"/>
      <point x="1107" y="854" type="line"/>
      <point x="1037" y="547" type="line" smooth="yes"/>
      <point x="990" y="342"/>
      <point x="953" y="189"/>
      <point x="879" y="-68" type="qcurve" smooth="yes"/>
      <point x="832" y="-219"/>
      <point x="449" y="-489"/>
      <point x="171" y="-479" type="qcurve"/>
      <point x="25" y="-414" type="line"/>
      <point x="41" y="-372" type="line"/>
      <point x="116" y="-377" type="line" smooth="yes"/>
      <point x="304" y="-390"/>
      <point x="464" y="-75"/>
      <point x="512" y="162" type="qcurve"/>
      <point x="511" y="163" type="line"/>
      <point x="480" y="109"/>
      <point x="348" y="20"/>
      <point x="233" y="20" type="qcurve" smooth="yes"/>
      <point x="87" y="20"/>
      <point x="-10" y="142"/>
    </contour>
    <contour>
      <point x="395" y="193" type="qcurve" smooth="yes"/>
      <point x="395" y="172"/>
      <point x="414" y="157"/>
      <point x="433" y="157" type="qcurve" smooth="yes"/>
      <point x="460" y="157"/>
      <point x="510" y="232"/>
      <point x="570" y="466" type="qcurve" smooth="yes"/>
      <point x="671" y="861" type="line" smooth="yes"/>
      <point x="680" y="898"/>
      <point x="670" y="934"/>
      <point x="648" y="934" type="qcurve" smooth="yes"/>
      <point x="600" y="934"/>
      <point x="395" y="255"/>
    </contour>
  </outline>
</glyph>
<glyph name="h" format="2">
  <advance width="1111"/>
  <unicode hex="0068"/>
  <outline>
    <contour>
      <point x="26" y="-18" type="line"/>
      <point x="-48" y="112" type="line"/>
      <point x="75" y="599" type="line"/>
      <point x="256" y="1423" type="line"/>
      <point x="80" y="1425" type="line"/>
      <point x="98" y="1494" type="line"/>
      <point x="651" y="1566" type="line"/>
      <point x="687" y="1518" type="line"/>
      <point x="521" y="696" type="line"/>
      <point x="402" y="133" type="line"/>
      <point x="444" y="45" type="line"/>
    </contour>
    <contour>
      <point x="576" y="-17" type="line"/>
      <point x="506" y="123" type="line"/>
      <point x="648" y="756" type="line" smooth="yes"/>
      <point x="654" y="784"/>
      <point x="645" y="816"/>
      <point x="629" y="816" type="qcurve" smooth="yes"/>
      <point x="607" y="816"/>
      <point x="556" y="747"/>
      <point x="500" y="624" type="qcurve"/>
      <point x="471" y="655" type="line"/>
      <point x="552" y="849"/>
      <point x="735" y="982"/>
      <point x="862" y="982" type="qcurve" smooth="yes"/>
      <point x="992" y="982"/>
      <point x="1111" y="777"/>
      <point x="1077" y="628" type="qcurve" smooth="yes"/>
      <point x="964" y="132" type="line"/>
      <point x="1056" y="140" type="line"/>
      <point x="1047" y="82" type="line"/>
    </contour>
  </outline>
</glyph>
<glyph name="i" format="2">
  <advance width="608"/>
  <unicode hex="0069"/>
  <outline>
    <contour>
      <point x="35" y="-21" type="line"/>
      <point x="-40" y="111" type="line"/>
      <point x="65" y="507" type="line"/>
      <point x="124" y="807" type="line"/>
      <point x="8" y="835" type="line"/>
      <point x="12" y="894" type="line"/>
      <point x="436" y="973" type="line"/>
      <point x="582" y="973" type="line"/>
      <point x="617" y="836" type="line"/>
      <point x="570" y="711" type="line"/>
      <point x="433" y="132" type="line"/>
      <point x="554" y="142" type="line"/>
      <point x="545" y="84" type="line"/>
    </contour>
    <contour>
      <point x="224" y="1273" type="qcurve" smooth="yes"/>
      <point x="235" y="1374"/>
      <point x="363" y="1482"/>
      <point x="471" y="1482" type="qcurve" smooth="yes"/>
      <point x="572" y="1482"/>
      <point x="683" y="1365"/>
      <point x="670" y="1273" type="qcurve" smooth="yes"/>
      <point x="659" y="1174"/>
      <point x="531" y="1066"/>
      <point x="423" y="1066" type="qcurve" smooth="yes"/>
      <point x="322" y="1066"/>
      <point x="211" y="1180"/>
    </contour>
  </outline>
</glyph>
<glyph name="j" format="2">
  <advance width="653"/>
  <unicode hex="006A"/>
  <outline>
    <contour>
      <point x="136.0" y="809.0" type="qcurve"/>
      <point x="10.0" y="836.0" type="line"/>
      <point x="15.0" y="918.0" type="line"/>
      <point x="503.0" y="971.0" type="line"/>
      <point x="600.0" y="958.0" type="line"/>
      <point x="608.0" y="906.0" type="line"/>
      <point x="578.0" y="769.0" type="line"/>
      <point x="495.0" y="350.0" type="line"/>
      <point x="424.0" y="-3.0"/>
      <point x="11.0" y="-479.0"/>
      <point x="-346.0" y="-479.0" type="qcurve"/>
      <point x="-516.0" y="-419.0" type="line"/>
      <point x="-506.0" y="-360.0" type="line"/>
      <point x="-425.0" y="-358.0" type="line" smooth="yes"/>
      <point x="-188.0" y="-352.0"/>
      <point x="-36.0" y="-80.0"/>
      <point x="7.0" y="159.0" type="qcurve" smooth="yes"/>
      <point x="24.0" y="254.0"/>
      <point x="107.0" y="614.0"/>
    </contour>
    <contour>
      <point x="171.0" y="1302.0" type="qcurve" smooth="yes"/>
      <point x="183.0" y="1388.0"/>
      <point x="311.0" y="1481.0"/>
      <point x="419.0" y="1481.0" type="qcurve" smooth="yes"/>
      <point x="521.0" y="1481.0"/>
      <point x="633.0" y="1382.0"/>
      <point x="620.0" y="1302.0" type="qcurve" smooth="yes"/>
      <point x="607.0" y="1218.0"/>
      <point x="479.0" y="1124.0"/>
      <point x="371.0" y="1124.0" type="qcurve" smooth="yes"/>
      <point x="270.0" y="1124.0"/>
      <point x="158.0" y="1222.0"/>
    </contour>
  </outline>
</glyph>
<glyph name="k" format="2">
  <advance width="1114"/>
  <unicode hex="006B"/>
  <outline>
    <contour>
      <point x="-13.0" y="-9.0" type="line"/>
      <point x="-15.0" y="60.0" type="line"/>
      <point x="102.0" y="585.0" type="line"/>
      <point x="258.0" y="1428.0" type="line"/>
      <point x="66.0" y="1421.0" type="line"/>
      <point x="83.0" y="1494.0" type="line"/>
      <point x="694.0" y="1578.0" type="line"/>
      <point x="710.0" y="1523.0" type="line"/>
      <point x="572.0" y="786.0" type="line"/>
      <point x="615.0" y="863.0"/>
      <point x="780.0" y="976.0"/>
      <point x="854.0" y="976.0" type="qcurve" smooth="yes"/>
      <point x="943.0" y="976.0"/>
      <point x="1020.0" y="847.0"/>
      <point x="1014.0" y="749.0" type="qcurve" smooth="yes"/>
      <point x="1006.0" y="724.0" type="line"/>
      <point x="998.0" y="702.0" type="line"/>
      <point x="831.0" y="540.0" type="line"/>
      <point x="951.0" y="141.0" type="line"/>
      <point x="1059.0" y="147.0" type="line"/>
      <point x="1051.0" y="87.0" type="line"/>
      <point x="603.0" y="-9.0" type="line" smooth="yes"/>
      <point x="580.0" y="-19.0"/>
      <point x="573.0" y="-20.0"/>
      <point x="561.0" y="15.0" type="qcurve"/>
      <point x="494.0" y="335.0" type="line"/>
      <point x="424.0" y="259.0" type="line"/>
      <point x="426.0" y="314.0" type="line"/>
      <point x="697.0" y="594.0" type="line"/>
      <point x="759.0" y="664.0"/>
      <point x="764.0" y="805.0"/>
      <point x="686.0" y="805.0" type="qcurve" smooth="yes"/>
      <point x="646.0" y="805.0"/>
      <point x="578.0" y="713.0"/>
      <point x="554.0" y="666.0" type="qcurve"/>
      <point x="524.0" y="498.0" type="line"/>
      <point x="449.0" y="118.0" type="line"/>
      <point x="460.0" y="21.0" type="line"/>
    </contour>
  </outline>
</glyph>
<glyph name="l" format="2">
  <advance width="582"/>
  <unicode hex="006C"/>
  <outline>
    <contour>
      <point x="27" y="-14" type="line"/>
      <point x="-45" y="105" type="line"/>
      <point x="82" y="604" type="line"/>
      <point x="256" y="1428" type="line"/>
      <point x="79" y="1421" type="line"/>
      <point x="97" y="1494" type="line"/>
      <point x="654" y="1568" type="line"/>
      <point x="689" y="1524" type="line"/>
      <point x="498" y="590" type="line"/>
      <point x="404" y="129" type="line"/>
      <point x="531" y="139" type="line"/>
      <point x="522" y="82" type="line"/>
    </contour>
  </outline>
</glyph>
<glyph name="m" format="2">
  <advance width="1619"/>
  <unicode hex="006D"/>
  <outline>
    <contour>
      <point x="36" y="-25" type="line"/>
      <point x="-42" y="112" type="line"/>
      <point x="49" y="457" type="line"/>
      <point x="122" y="807" type="line"/>
      <point x="6" y="833" type="line"/>
      <point x="12" y="896" type="line"/>
      <point x="379" y="989" type="line"/>
      <point x="547" y="955" type="line"/>
      <point x="514" y="698" type="line"/>
      <point x="532" y="680" type="line"/>
      <point x="407" y="130" type="line"/>
      <point x="450" y="45" type="line"/>
    </contour>
    <contour>
      <point x="585" y="-21" type="line"/>
      <point x="506" y="130" type="line"/>
      <point x="636" y="717" type="line" smooth="yes"/>
      <point x="645" y="760"/>
      <point x="640" y="816"/>
      <point x="621" y="816.0" type="qcurve" smooth="yes"/>
      <point x="602" y="816"/>
      <point x="570" y="767"/>
      <point x="511" y="624" type="qcurve"/>
      <point x="481" y="654" type="line"/>
      <point x="557" y="862"/>
      <point x="747" y="979"/>
      <point x="851" y="979" type="qcurve" smooth="yes"/>
      <point x="993" y="979"/>
      <point x="1085" y="767"/>
      <point x="1053" y="628" type="qcurve" smooth="yes"/>
      <point x="938" y="128" type="line"/>
      <point x="963" y="68" type="line"/>
    </contour>
    <contour>
      <point x="1106" y="-20" type="line"/>
      <point x="1035" y="131" type="line"/>
      <point x="1170" y="717" type="line" smooth="yes"/>
      <point x="1180" y="760"/>
      <point x="1174" y="816"/>
      <point x="1157" y="816.0" type="qcurve" smooth="yes"/>
      <point x="1133" y="816"/>
      <point x="1093" y="762"/>
      <point x="1051" y="624" type="qcurve"/>
      <point x="1022" y="654" type="line"/>
      <point x="1084" y="843"/>
      <point x="1251" y="979"/>
      <point x="1379" y="979" type="qcurve" smooth="yes"/>
      <point x="1516" y="979"/>
      <point x="1614" y="775"/>
      <point x="1593" y="658" type="qcurve" smooth="yes"/>
      <point x="1474" y="132" type="line"/>
      <point x="1567" y="142" type="line"/>
      <point x="1559" y="84" type="line"/>
    </contour>
  </outline>
</glyph>
<glyph name="n" format="2">
  <advance width="1117"/>
  <unicode hex="006E"/>
  <outline>
    <contour>
      <point x="32" y="-21" type="line"/>
      <point x="-42" y="113" type="line"/>
      <point x="49" y="458" type="line"/>
      <point x="123" y="829" type="line"/>
      <point x="6" y="845" type="line"/>
      <point x="12" y="896" type="line"/>
      <point x="379" y="991" type="line"/>
      <point x="548" y="957" type="line"/>
      <point x="520" y="734" type="line"/>
      <point x="543" y="712" type="line"/>
      <point x="408" y="132" type="line"/>
      <point x="451" y="43" type="line"/>
    </contour>
    <contour>
      <point x="582" y="-17" type="line"/>
      <point x="512" y="123" type="line"/>
      <point x="654" y="756" type="line" smooth="yes"/>
      <point x="660" y="784"/>
      <point x="651" y="816"/>
      <point x="635" y="816" type="qcurve" smooth="yes"/>
      <point x="613" y="816"/>
      <point x="562" y="748"/>
      <point x="506" y="624" type="qcurve"/>
      <point x="476" y="655" type="line"/>
      <point x="558" y="849"/>
      <point x="741" y="979"/>
      <point x="869" y="979" type="qcurve" smooth="yes"/>
      <point x="998" y="979"/>
      <point x="1120" y="776"/>
      <point x="1083" y="628" type="qcurve" smooth="yes"/>
      <point x="970" y="132" type="line"/>
      <point x="1062" y="140" type="line"/>
      <point x="1053" y="82" type="line"/>
    </contour>
  </outline>
</glyph>
<glyph name="p" format="2">
  <advance width="1207"/>
  <unicode hex="0070"/>
  <outline>
    <contour>
      <point x="-153.0" y="-447.0" type="line"/>
      <point x="71.0" y="572.0" type="line"/>
      <point x="114.0" y="877.0" type="line"/>
      <point x="104.0" y="889.0" type="line"/>
      <point x="456.0" y="1012.0" type="line"/>
      <point x="541.0" y="998.0" type="line"/>
      <point x="521.0" y="765.0" type="line"/>
      <point x="597.0" y="867.0"/>
      <point x="793.0" y="999.0"/>
      <point x="952.0" y="999.0" type="qcurve" smooth="yes"/>
      <point x="1043.0" y="999.0"/>
      <point x="1153.0" y="823.0"/>
      <point x="1147.0" y="725.0" type="qcurve" smooth="yes"/>
      <point x="1129.0" y="404.0"/>
      <point x="859.0" y="30.0"/>
      <point x="548.0" y="30.0" type="qcurve" smooth="yes"/>
      <point x="499.0" y="30.0"/>
      <point x="432.0" y="45.0"/>
      <point x="413.0" y="59.0" type="qcurve"/>
      <point x="311.0" y="-420.0" type="line"/>
      <point x="466.0" y="-416.0" type="line"/>
      <point x="462.0" y="-465.0" type="line"/>
      <point x="-109.0" y="-497.0" type="line"/>
    </contour>
    <contour>
      <point x="414.0" y="64.0" type="line"/>
      <point x="435.0" y="58.0"/>
      <point x="466.0" y="49.0"/>
      <point x="474.0" y="48.0" type="qcurve" smooth="yes"/>
      <point x="513.0" y="45.0"/>
      <point x="656.0" y="481.0"/>
      <point x="669.0" y="637.0" type="qcurve" smooth="yes"/>
      <point x="677.0" y="743.0"/>
      <point x="659.0" y="832.0"/>
      <point x="633.0" y="832.0" type="qcurve" smooth="yes"/>
      <point x="614.0" y="830.0"/>
      <point x="568.0" y="764.0"/>
      <point x="542.0" y="709.0" type="qcurve"/>
      <point x="513.0" y="552.0" type="line"/>
    </contour>
  </outline>
</glyph>
<glyph name="q" format="2">
  <advance width="1085"/>
  <unicode hex="0071"/>
  <outline>
    <contour>
      <point x="-15" y="287" type="qcurve" smooth="yes"/>
      <point x="-22" y="556"/>
      <point x="339" y="987"/>
      <point x="626" y="987" type="qcurve" smooth="yes"/>
      <point x="696" y="987"/>
      <point x="753" y="932"/>
      <point x="765" y="892" type="qcurve"/>
      <point x="933" y="981" type="line"/>
      <point x="1044" y="974" type="line"/>
      <point x="1103" y="856" type="line"/>
      <point x="1004" y="468" type="line"/>
      <point x="781" y="-405" type="line"/>
      <point x="909" y="-415" type="line"/>
      <point x="895" y="-465" type="line"/>
      <point x="372" y="-478" type="line"/>
      <point x="352" y="-429" type="line"/>
      <point x="516" y="165" type="line"/>
      <point x="513" y="165" type="line"/>
      <point x="459" y="67"/>
      <point x="354" y="-11"/>
      <point x="233" y="-11" type="qcurve" smooth="yes"/>
      <point x="128" y="-11"/>
      <point x="-11" y="143"/>
    </contour>
    <contour>
      <point x="389" y="177" type="qcurve" smooth="yes"/>
      <point x="389" y="152"/>
      <point x="402" y="130"/>
      <point x="422" y="130" type="qcurve" smooth="yes"/>
      <point x="457" y="130"/>
      <point x="520" y="278"/>
      <point x="568" y="466" type="qcurve" smooth="yes"/>
      <point x="670" y="863" type="line" smooth="yes"/>
      <point x="679" y="897"/>
      <point x="668" y="934"/>
      <point x="645" y="934" type="qcurve" smooth="yes"/>
      <point x="597" y="934"/>
      <point x="389" y="245"/>
    </contour>
  </outline>
</glyph>
<glyph name="r" format="2">
  <advance width="918"/>
  <unicode hex="0072"/>
  <outline>
    <contour>
      <point x="33" y="-24" type="line"/>
      <point x="-42" y="114" type="line"/>
      <point x="50" y="457" type="line"/>
      <point x="121" y="807" type="line"/>
      <point x="6" y="834" type="line"/>
      <point x="13" y="895" type="line"/>
      <point x="380" y="991" type="line"/>
      <point x="548" y="956" type="line"/>
      <point x="519" y="734" type="line"/>
      <point x="545" y="713" type="line"/>
      <point x="405" y="124" type="line"/>
      <point x="503" y="116" type="line"/>
      <point x="508" y="71" type="line"/>
    </contour>
    <contour>
      <point x="716" y="629" type="line"/>
      <point x="714" y="879" type="line"/>
      <point x="655" y="849"/>
      <point x="560" y="741"/>
      <point x="499" y="627" type="qcurve"/>
      <point x="468" y="674" type="line"/>
      <point x="543" y="845"/>
      <point x="696" y="993"/>
      <point x="802" y="993" type="qcurve" smooth="yes"/>
      <point x="878" y="993"/>
      <point x="955" y="913"/>
      <point x="955" y="839" type="qcurve" smooth="yes"/>
      <point x="955" y="761"/>
      <point x="838" y="634"/>
      <point x="747" y="617" type="qcurve"/>
    </contour>
  </outline>
</glyph>
<glyph name="s" format="2">
  <advance width="820"/>
  <unicode hex="0073"/>
  <outline>
    <contour>
      <point x="-49.0" y="152.0" type="qcurve" smooth="yes"/>
      <point x="-48.0" y="209.0"/>
      <point x="31.0" y="280.0"/>
      <point x="114.0" y="280.0" type="qcurve" smooth="yes"/>
      <point x="138.0" y="280.0" type="line"/>
      <point x="137.0" y="211.0" type="line" smooth="yes"/>
      <point x="134.0" y="117.0"/>
      <point x="254.0" y="29.0"/>
      <point x="324.0" y="29.0" type="qcurve" smooth="yes"/>
      <point x="409.0" y="29.0"/>
      <point x="504.0" y="114.0"/>
      <point x="509.0" y="159.0" type="qcurve" smooth="yes"/>
      <point x="515.0" y="206.0"/>
      <point x="441.0" y="269.0"/>
      <point x="320.0" y="334.0" type="qcurve" smooth="yes"/>
      <point x="170.0" y="427.0"/>
      <point x="88.0" y="584.0"/>
      <point x="95.0" y="698.0" type="qcurve" smooth="yes"/>
      <point x="104.0" y="835.0"/>
      <point x="279.0" y="987.0"/>
      <point x="515.0" y="987.0" type="qcurve" smooth="yes"/>
      <point x="692.0" y="987.0"/>
      <point x="867.0" y="888.0"/>
      <point x="866.0" y="823.0" type="qcurve" smooth="yes"/>
      <point x="865.0" y="772.0"/>
      <point x="784.0" y="724.0"/>
      <point x="718.0" y="724.0" type="qcurve" smooth="yes"/>
      <point x="688.0" y="724.0" type="line"/>
      <point x="690.0" y="812.0" type="line" smooth="yes"/>
      <point x="692.0" y="853.0"/>
      <point x="576.0" y="928.0"/>
      <point x="507.0" y="928.0" type="qcurve" smooth="yes"/>
      <point x="453.0" y="928.0"/>
      <point x="390.0" y="867.0"/>
      <point x="390.0" y="823.0" type="qcurve" smooth="yes"/>
      <point x="391.0" y="799.0"/>
      <point x="468.0" y="742.0"/>
      <point x="598.0" y="665.0" type="qcurve" smooth="yes"/>
      <point x="727.0" y="597.0"/>
      <point x="792.0" y="467.0"/>
      <point x="789.0" y="377.0" type="qcurve"/>
      <point x="782.0" y="172.0"/>
      <point x="512.0" y="-25.0"/>
      <point x="298.0" y="-25.0" type="qcurve" smooth="yes"/>
      <point x="127.0" y="-25.0"/>
      <point x="-51.0" y="52.0"/>
    </contour>
  </outline>
</glyph>
<glyph name="t" format="2">
  <advance width="741"/>
  <unicode hex="0074"/>
  <outline>
    <contour>
      <point x="67.0" y="-6.0" type="line"/>
      <point x="23.0" y="46.0" type="line"/>
      <point x="98.0" y="503.0" type="line"/>
      <point x="153.0" y="794.0" type="line"/>
      <point x="14.0" y="787.0" type="line"/>
      <point x="14.0" y="855.0" type="line"/>
      <point x="211.0" y="877.0"/>
      <point x="434.0" y="1039.0"/>
      <point x="487.0" y="1226.0" type="qcurve"/>
      <point x="671.0" y="1235.0" type="line"/>
      <point x="710.0" y="1193.0" type="line"/>
      <point x="570.0" y="486.0" type="line"/>
      <point x="509.0" y="160.0" type="line"/>
      <point x="736.0" y="169.0" type="line"/>
      <point x="731.0" y="106.0" type="line"/>
    </contour>
    <contour>
      <point x="568.0" y="794.0" type="line"/>
      <point x="574.0" y="867.0" type="line"/>
      <point x="836.0" y="873.0" type="line"/>
      <point x="820.0" y="804.0" type="line"/>
    </contour>
  </outline>
</glyph>
<glyph name="u" format="2">
  <advance width="1102"/>
  <unicode hex="0075"/>
  <outline>
    <contour>
      <point x="568.0" y="-12.0" type="line"/>
      <point x="525.0" y="1.0" type="line"/>
      <point x="508.0" y="133.0" type="line"/>
      <point x="670.0" y="853.0" type="line"/>
      <point x="674.0" y="945.0" type="line"/>
      <point x="1120.0" y="964.0" type="line"/>
      <point x="1139.0" y="915.0" type="line"/>
      <point x="974.0" y="230.0" type="line"/>
      <point x="980.0" y="122.0" type="line"/>
      <point x="1065.0" y="142.0" type="line"/>
      <point x="1061.0" y="74.0" type="line"/>
    </contour>
    <contour>
      <point x="35.0" y="309.0" type="qcurve" smooth="yes"/>
      <point x="137.0" y="811.0" type="line"/>
      <point x="30.0" y="829.0" type="line"/>
      <point x="32.0" y="896.0" type="line"/>
      <point x="443.0" y="974.0" type="line"/>
      <point x="580.0" y="969.0" type="line"/>
      <point x="616.0" y="912.0" type="line"/>
      <point x="489.0" y="315.0" type="line" smooth="yes"/>
      <point x="470.0" y="221.0"/>
      <point x="481.0" y="118.0"/>
      <point x="509.0" y="118.0" type="qcurve" smooth="yes"/>
      <point x="529.0" y="118.0"/>
      <point x="510.0" y="98.0"/>
      <point x="576.0" y="192.0" type="qcurve"/>
      <point x="582.0" y="149.0" type="line"/>
      <point x="509.0" y="44.0"/>
      <point x="390.0" y="-11.0"/>
      <point x="279.0" y="-11.0" type="qcurve" smooth="yes"/>
      <point x="132.0" y="-11.0"/>
      <point x="8.0" y="174.0"/>
    </contour>
  </outline>
</glyph>
<glyph name="v" format="2">
  <advance width="899"/>
  <unicode hex="0076"/>
  <outline>
    <contour>
      <point x="-26" y="861" type="line"/>
      <point x="-29" y="916" type="line"/>
      <point x="368" y="974" type="line"/>
      <point x="510" y="974" type="line"/>
      <point x="521" y="549" type="line"/>
      <point x="532" y="166" type="line"/>
      <point x="662" y="333"/>
      <point x="754" y="607"/>
      <point x="750" y="685" type="qcurve" smooth="yes"/>
      <point x="747" y="750"/>
      <point x="677" y="876"/>
      <point x="617" y="930" type="qcurve"/>
      <point x="604" y="949"/>
      <point x="682" y="997"/>
      <point x="734" y="997" type="qcurve" smooth="yes"/>
      <point x="813" y="997"/>
      <point x="923" y="904"/>
      <point x="923" y="801" type="qcurve" smooth="yes"/>
      <point x="923" y="670"/>
      <point x="651" y="198"/>
      <point x="452" y="0" type="qcurve"/>
      <point x="112" y="0" type="line"/>
      <point x="97" y="489" type="line"/>
      <point x="81" y="865" type="line"/>
    </contour>
  </outline>
</glyph>
<glyph name="w" format="2">
  <advance width="1363"/>
  <unicode hex="0077"/>
  <outline>
    <contour>
      <point x="-18" y="859" type="line"/>
      <point x="-21" y="916" type="line"/>
      <point x="379" y="970" type="line"/>
      <point x="512" y="970" type="line"/>
      <point x="504" y="567" type="line"/>
      <point x="493" y="153" type="line"/>
      <point x="599" y="250"/>
      <point x="753" y="496"/>
      <point x="780" y="607" type="qcurve"/>
      <point x="825" y="592" type="line"/>
      <point x="802" y="483"/>
      <point x="641" y="213"/>
      <point x="415" y="0" type="qcurve"/>
      <point x="83" y="0" type="line"/>
      <point x="91" y="488" type="line"/>
      <point x="95" y="865" type="line"/>
    </contour>
    <contour>
      <point x="557" y="923" type="line"/>
      <point x="876" y="970" type="line"/>
      <point x="1016" y="970" type="line"/>
      <point x="1014" y="570" type="line"/>
      <point x="1009" y="179" type="line"/>
      <point x="1125" y="301"/>
      <point x="1220" y="568"/>
      <point x="1220" y="680" type="qcurve" smooth="yes"/>
      <point x="1220" y="755"/>
      <point x="1148" y="872"/>
      <point x="1090" y="922" type="qcurve"/>
      <point x="1105" y="951"/>
      <point x="1167" y="996"/>
      <point x="1220" y="996" type="qcurve" smooth="yes"/>
      <point x="1279" y="996"/>
      <point x="1387" y="903"/>
      <point x="1387" y="801" type="qcurve" smooth="yes"/>
      <point x="1387" y="635"/>
      <point x="1122" y="198"/>
      <point x="918" y="0" type="qcurve"/>
      <point x="592" y="0" type="line"/>
      <point x="600" y="476" type="line"/>
      <point x="602" y="874" type="line"/>
      <point x="557" y="868" type="line"/>
    </contour>
  </outline>
</glyph>
<glyph name="z" format="2">
  <advance width="869"/>
  <unicode hex="007A"/>
  <outline>
    <contour>
      <point x="-27" y="-9" type="line"/>
      <point x="-102" y="75" type="line"/>
      <point x="-45" y="130"/>
      <point x="107" y="268"/>
      <point x="252" y="416" type="qcurve" smooth="yes"/>
      <point x="388" y="555"/>
      <point x="480" y="636"/>
      <point x="511" y="672" type="qcurve"/>
      <point x="130" y="663" type="line"/>
      <point x="106" y="598" type="line"/>
      <point x="31" y="600" type="line"/>
      <point x="114" y="945" type="line"/>
      <point x="186" y="974" type="line"/>
      <point x="861" y="959" type="line"/>
      <point x="902" y="862" type="line"/>
      <point x="854" y="814"/>
      <point x="715" y="675"/>
      <point x="564" y="526" type="qcurve" smooth="yes"/>
      <point x="429" y="393"/>
      <point x="353" y="336"/>
      <point x="326" y="306" type="qcurve"/>
      <point x="729" y="265" type="line"/>
      <point x="761" y="321" type="line"/>
      <point x="830" y="320" type="line"/>
      <point x="728" y="21" type="line"/>
      <point x="646" y="-26" type="line"/>
      <point x="54" y="64" type="line"/>
    </contour>
  </outline>
</glyph>
<glyph name="braceleft" format="2">
  <advance width="752"/>
  <unicode hex="007B"/>
  <outline>
    <contour>
      <point x="122.0" y="711.0" type="line"/>
      <point x="120.0" y="753.0" type="line"/>
      <point x="157.0" y="751.0" type="line" smooth="yes"/>
      <point x="210" y="748"/>
      <point x="311.0" y="802.0"/>
      <point x="328.0" y="909.0" type="qcurve" smooth="yes"/>
      <point x="338.0" y="972.0"/>
      <point x="255.0" y="1207.0"/>
      <point x="254.0" y="1286.0" type="qcurve" smooth="yes"/>
      <point x="256.0" y="1416.0"/>
      <point x="437.0" y="1510.0"/>
      <point x="590.0" y="1510.0" type="qcurve" smooth="yes"/>
      <point x="617.0" y="1510.0"/>
      <point x="883" y="1500.0"/>
      <point x="892.0" y="1500.0" type="qcurve"/>
      <point x="884.0" y="1468.0" type="line"/>
      <point x="860" y="1468.0"/>
      <point x="829.0" y="1471.0"/>
      <point x="789.0" y="1470.0" type="qcurve" smooth="yes"/>
      <point x="724.0" y="1468.0"/>
      <point x="645.0" y="1373"/>
      <point x="645.0" y="1310.0" type="qcurve" smooth="yes"/>
      <point x="645" y="1199"/>
      <point x="701.0" y="1047.0"/>
      <point x="690.0" y="958.0" type="qcurve" smooth="yes"/>
      <point x="681" y="886"/>
      <point x="554.0" y="774.0"/>
      <point x="421.0" y="755.0" type="qcurve"/>
      <point x="554.0" y="744.0"/>
      <point x="613.0" y="585.0"/>
      <point x="588.0" y="510.0" type="qcurve" smooth="yes"/>
      <point x="556.0" y="412.0"/>
      <point x="409.0" y="198.0"/>
      <point x="385.0" y="78.0" type="qcurve" smooth="yes"/>
      <point x="367.0" y="-18.0"/>
      <point x="406.0" y="-87.0"/>
      <point x="473.0" y="-87.0" type="qcurve" smooth="yes"/>
      <point x="513.0" y="-87.0"/>
      <point x="541.0" y="-84.0"/>
      <point x="575.0" y="-78.0" type="qcurve"/>
      <point x="570.0" y="-109.0" type="line"/>
      <point x="539.0" y="-115.0"/>
      <point x="317.0" y="-122.0"/>
      <point x="280.0" y="-122.0" type="qcurve" smooth="yes"/>
      <point x="115.0" y="-122.0"/>
      <point x="-5.0" y="6.0"/>
      <point x="16.0" y="122.0" type="qcurve" smooth="yes"/>
      <point x="41.0" y="256.0"/>
      <point x="273.0" y="579.0"/>
      <point x="273.0" y="693.0" type="qcurve"/>
      <point x="274.0" y="713.0" type="line"/>
    </contour>
  </outline>
</glyph>
<glyph name="braceright" format="2">
  <advance width="752"/>
  <unicode hex="007D"/>
  <outline>
    <contour>
      <point x="-155.0" y="-107.0" type="qcurve"/>
      <point x="-146.0" y="-78.0" type="line"/>
      <point x="-122.0" y="-84.0"/>
      <point x="-88.0" y="-85.0"/>
      <point x="-58.0" y="-84.0" type="qcurve" smooth="yes"/>
      <point x="14" y="-82"/>
      <point x="83.0" y="10.0"/>
      <point x="100.0" y="106.0" type="qcurve" smooth="yes"/>
      <point x="116.0" y="193.0"/>
      <point x="30.0" y="460.0"/>
      <point x="46.0" y="539.0" type="qcurve" smooth="yes"/>
      <point x="66.0" y="641.0"/>
      <point x="196.0" y="751.0"/>
      <point x="320.0" y="758.0" type="qcurve"/>
      <point x="191.0" y="788.0"/>
      <point x="129.0" y="901.0"/>
      <point x="154.0" y="974.0" type="qcurve" smooth="yes"/>
      <point x="179" y="1047"/>
      <point x="317" y="1221"/>
      <point x="331.0" y="1298.0" type="qcurve" smooth="yes"/>
      <point x="346.0" y="1378.0"/>
      <point x="300" y="1470"/>
      <point x="230.0" y="1470.0" type="qcurve" smooth="yes"/>
      <point x="201" y="1470.0"/>
      <point x="172.0" y="1470.0"/>
      <point x="146.0" y="1468.0" type="qcurve"/>
      <point x="151.0" y="1499.0" type="line"/>
      <point x="182.0" y="1502.0"/>
      <point x="390.0" y="1510.0"/>
      <point x="447.0" y="1510.0" type="qcurve" smooth="yes"/>
      <point x="579.0" y="1510.0"/>
      <point x="735.0" y="1372.0"/>
      <point x="698.0" y="1213.0" type="qcurve" smooth="yes"/>
      <point x="673.0" y="1105.0"/>
      <point x="487.0" y="894.0"/>
      <point x="473.0" y="827.0" type="qcurve"/>
      <point x="481.0" y="780.0" type="line"/>
      <point x="653.0" y="778.0" type="line"/>
      <point x="643.0" y="735.0" type="line"/>
      <point x="566.0" y="729.0" type="line" smooth="yes"/>
      <point x="521" y="725"/>
      <point x="457" y="688"/>
      <point x="440" y="620" type="qcurve" smooth="yes"/>
      <point x="408" y="490"/>
      <point x="517.0" y="240.0"/>
      <point x="492.0" y="122.0" type="qcurve" smooth="yes"/>
      <point x="465.0" y="-5.0"/>
      <point x="277.0" y="-122.0"/>
      <point x="119.0" y="-122.0" type="qcurve" smooth="yes"/>
      <point x="72.0" y="-122.0"/>
      <point x="-125.0" y="-114.0"/>
    </contour>
  </outline>
</glyph>
<glyph name="asciitilde" format="2">
  <advance width="866"/>
  <unicode hex="007E"/>
  <outline>
    <contour>
      <point x="105.0" y="587.0" type="line"/>
      <point x="140.0" y="675.0"/>
      <point x="250.0" y="851.0"/>
      <point x="307.0" y="860.0" type="qcurve"/>
      <point x="582.0" y="746.0" type="line"/>
      <point x="623.0" y="746.0"/>
      <point x="673.0" y="776.0"/>
      <point x="706.0" y="844.0" type="qcurve"/>
      <point x="751.0" y="806.0" type="line"/>
      <point x="722.0" y="711.0"/>
      <point x="622.0" y="542.0"/>
      <point x="552.0" y="532.0" type="qcurve"/>
      <point x="290.0" y="640.0" type="line"/>
      <point x="250.0" y="640.0"/>
      <point x="190.0" y="605.0"/>
      <point x="156.0" y="547.0" type="qcurve"/>
    </contour>
  </outline>
</glyph>
<glyph name="exclamdown" format="2">
  <advance width="729"/>
  <unicode hex="00A1"/>
  <outline>
    <contour>
      <point x="632.0" y="1143.0" type="qcurve" smooth="yes"/>
      <point x="628.0" y="1060.0"/>
      <point x="529.0" y="959.0"/>
      <point x="444.0" y="959.0" type="qcurve" smooth="yes"/>
      <point x="365.0" y="959.0"/>
      <point x="273.0" y="1064.0"/>
      <point x="280.0" y="1143.0" type="qcurve" smooth="yes"/>
      <point x="284.0" y="1227.0"/>
      <point x="384.0" y="1325.0"/>
      <point x="469.0" y="1325.0" type="qcurve" smooth="yes"/>
      <point x="548.0" y="1325.0"/>
      <point x="638.0" y="1223.0"/>
    </contour>
    <contour>
      <point x="456.0" y="-43.0" type="line" smooth="yes"/>
      <point x="452.0" y="-128.0"/>
      <point x="290.0" y="-243.0"/>
      <point x="198.0" y="-243.0" type="qcurve" smooth="yes"/>
      <point x="105.0" y="-244.0"/>
      <point x="-13.0" y="-127.0"/>
      <point x="13.0" y="-43.0" type="qcurve" smooth="yes"/>
      <point x="95.0" y="184.0" type="line"/>
      <point x="216.0" y="369.0" type="line"/>
      <point x="353.0" y="803.0" type="line"/>
      <point x="444.0" y="812.0" type="line"/>
      <point x="413.0" y="378.0" type="line"/>
      <point x="456.0" y="172.0" type="line"/>
    </contour>
  </outline>
</glyph>
<glyph name="cent" format="2">
  <advance width="818"/>
  <unicode hex="00A2"/>
  <outline>
    <contour>
      <point x="419.0" y="-96.0" type="line"/>
      <point x="485.0" y="182.0" type="line"/>
      <point x="487.0" y="187.0" type="line"/>
      <point x="565.0" y="540.0" type="line"/>
      <point x="569.0" y="498.0" type="line"/>
      <point x="501.0" y="187.0" type="line"/>
      <point x="499.0" y="182.0" type="line"/>
      <point x="431.0" y="-108.0" type="line"/>
    </contour>
    <contour>
      <point x="726.0" y="1249.0" type="line"/>
      <point x="742.0" y="1258.0" type="line"/>
      <point x="694.0" y="1054.0" type="line"/>
      <point x="694.0" y="1049.0" type="line"/>
      <point x="569.0" y="498.0" type="line"/>
      <point x="565.0" y="540.0" type="line"/>
      <point x="682.0" y="1049.0" type="line"/>
      <point x="682.0" y="1054.0" type="line"/>
    </contour>
    <contour>
      <point x="33.0" y="580.0" type="qcurve" smooth="yes"/>
      <point x="50.0" y="795.0"/>
      <point x="332.0" y="1096.0"/>
      <point x="682.0" y="1096.0" type="qcurve" smooth="yes"/>
      <point x="844.0" y="1096.0"/>
      <point x="905.0" y="968.0"/>
      <point x="902.0" y="864.0" type="qcurve" smooth="yes"/>
      <point x="900.0" y="857.0"/>
      <point x="872.0" y="783.0"/>
      <point x="794.0" y="723.0" type="qcurve" smooth="yes"/>
      <point x="718.0" y="743.0" type="line"/>
      <point x="718.0" y="986.0" type="line" smooth="yes"/>
      <point x="718.0" y="997.0"/>
      <point x="697.0" y="1025.0"/>
      <point x="661.0" y="1025.0" type="qcurve" smooth="yes"/>
      <point x="625.0" y="1025.0"/>
      <point x="539.0" y="776.0"/>
      <point x="527.0" y="600.0" type="qcurve" smooth="yes"/>
      <point x="506.0" y="406.0"/>
      <point x="521.0" y="283.0"/>
      <point x="565.0" y="278.0" type="qcurve" smooth="yes"/>
      <point x="609.0" y="274.0"/>
      <point x="714.0" y="332.0"/>
      <point x="765.0" y="409.0" type="qcurve"/>
      <point x="800.0" y="364.0" type="line"/>
      <point x="798.0" y="329.0" type="line"/>
      <point x="740.0" y="214.0"/>
      <point x="569.0" y="122.0"/>
      <point x="443.0" y="118.0" type="qcurve" smooth="yes"/>
      <point x="189.0" y="111.0"/>
      <point x="13.0" y="353.0"/>
    </contour>
  </outline>
</glyph>
<glyph name="brokenbar" format="2">
  <advance width="703"/>
  <unicode hex="00A6"/>
  <outline>
    <contour>
      <point x="228.0" y="622.0" type="line"/>
      <point x="286.0" y="910.0" type="line"/>
      <point x="342.0" y="1218.0" type="line"/>
      <point x="399.0" y="1523.0" type="line"/>
      <point x="673.0" y="1526.0" type="line"/>
      <point x="611.0" y="1218.0" type="line"/>
      <point x="545.0" y="910.0" type="line"/>
      <point x="498.0" y="676.0" type="line"/>
    </contour>
    <contour>
      <point x="6.0" y="-504.0" type="line"/>
      <point x="88.0" y="-88.0" type="line"/>
      <point x="154.0" y="220.0" type="line"/>
      <point x="182.0" y="338.0" type="line"/>
      <point x="447.0" y="394.0" type="line"/>
      <point x="413.0" y="220.0" type="line"/>
      <point x="357.0" y="-88.0" type="line"/>
      <point x="276.0" y="-502.0" type="line"/>
    </contour>
  </outline>
</glyph>
<glyph name="ordfeminine" format="2">
  <advance width="1012"/>
  <unicode hex="00AA"/>
  <outline>
    <contour>
      <point x="229.0" y="925.0" type="qcurve" smooth="yes"/>
      <point x="241.0" y="1165.0"/>
      <point x="456.0" y="1501.0"/>
      <point x="678.0" y="1501.0" type="qcurve" smooth="yes"/>
      <point x="733.0" y="1501.0"/>
      <point x="803.0" y="1467.0"/>
      <point x="808.0" y="1456.0" type="qcurve"/>
      <point x="921.0" y="1478.0" type="line"/>
      <point x="1003.0" y="1478.0" type="line"/>
      <point x="1009.0" y="1317.0" type="line"/>
      <point x="959.0" y="1054.0" type="line"/>
      <point x="951.0" y="968.0" type="line"/>
      <point x="998.0" y="716.0" type="line"/>
      <point x="808.0" y="705.0" type="line"/>
      <point x="696.0" y="868.0" type="line"/>
      <point x="501.0" y="720.0" type="line"/>
      <point x="358.0" y="720.0"/>
      <point x="225.0" y="835.0"/>
    </contour>
    <contour>
      <point x="515.0" y="966.0" type="qcurve" smooth="yes"/>
      <point x="511.0" y="878.0"/>
      <point x="539.0" y="845.0"/>
      <point x="555.0" y="845.0" type="qcurve" smooth="yes"/>
      <point x="571.0" y="845.0"/>
      <point x="654.0" y="979.0"/>
      <point x="693.0" y="1130.0" type="qcurve" smooth="yes"/>
      <point x="757.0" y="1400.0" type="line"/>
      <point x="753.0" y="1418.0"/>
      <point x="750.0" y="1461.0"/>
      <point x="714.0" y="1461.0" type="qcurve" smooth="yes"/>
      <point x="653.0" y="1461.0"/>
      <point x="525.0" y="1069.0"/>
    </contour>
  </outline>
</glyph>
<glyph name="registered" format="2">
  <advance width="1491"/>
  <unicode hex="00AE"/>
  <outline>
    <contour>
      <point x="46.0" y="679.0" type="qcurve" smooth="yes"/>
      <point x="46.0" y="1035.0"/>
      <point x="450.0" y="1516.0"/>
      <point x="745.0" y="1516.0" type="qcurve" smooth="yes"/>
      <point x="1040.0" y="1516.0"/>
      <point x="1441.0" y="1060.0"/>
      <point x="1441.0" y="700.0" type="qcurve" smooth="yes"/>
      <point x="1441.0" y="305.0"/>
      <point x="1046.0" y="-196.0"/>
      <point x="754.0" y="-196.0" type="qcurve" smooth="yes"/>
      <point x="454.0" y="-196.0"/>
      <point x="46.0" y="293.0"/>
    </contour>
    <contour>
      <point x="155.0" y="672.0" type="qcurve" smooth="yes"/>
      <point x="155.0" y="361.0"/>
      <point x="517.0" y="-60.0"/>
      <point x="762.0" y="-60.0" type="qcurve" smooth="yes"/>
      <point x="1002.0" y="-60.0"/>
      <point x="1326.0" y="382.0"/>
      <point x="1326.0" y="689.0" type="qcurve" smooth="yes"/>
      <point x="1326.0" y="968.0"/>
      <point x="984.0" y="1376.0"/>
      <point x="728.0" y="1376.0" type="qcurve" smooth="yes"/>
      <point x="482.0" y="1376.0"/>
      <point x="155.0" y="960.0"/>
    </contour>
    <contour>
      <point x="467.0" y="259.0" type="line"/>
      <point x="469.0" y="285.0" type="line"/>
      <point x="526.0" y="305.0" type="line"/>
      <point x="532.0" y="698.0" type="line"/>
      <point x="524.0" y="1010.0" type="line"/>
      <point x="470.0" y="1034.0" type="line"/>
      <point x="472.0" y="1089.0" type="line"/>
      <point x="793.0" y="1089.0" type="line" smooth="yes"/>
      <point x="895.0" y="1089.0"/>
      <point x="1025.0" y="967.0"/>
      <point x="1025.0" y="855.0" type="qcurve" smooth="yes"/>
      <point x="1025.0" y="730.0"/>
      <point x="873.0" y="601.0"/>
      <point x="790.0" y="601.0" type="qcurve" smooth="yes"/>
      <point x="758.0" y="601.0"/>
      <point x="706.0" y="608.0"/>
      <point x="691.0" y="608.0" type="qcurve"/>
      <point x="689.0" y="668.0" type="line"/>
      <point x="710.0" y="668.0" type="line" smooth="yes"/>
      <point x="789.0" y="668.0"/>
      <point x="844.0" y="762.0"/>
      <point x="844.0" y="857.0" type="qcurve" smooth="yes"/>
      <point x="844.0" y="949.0"/>
      <point x="794.0" y="1021.0"/>
      <point x="726.0" y="1021.0" type="qcurve" smooth="yes"/>
      <point x="727.0" y="1021.0" type="line"/>
      <point x="712.0" y="1006.0" type="line"/>
      <point x="706.0" y="678.0" type="line"/>
      <point x="714.0" y="305.0" type="line"/>
      <point x="759.0" y="285.0" type="line"/>
      <point x="759.0" y="259.0" type="line"/>
    </contour>
    <contour>
      <point x="718.0" y="668.0" type="line"/>
      <point x="896.0" y="691.0" type="line"/>
      <point x="1029.0" y="390.0" type="line" smooth="yes"/>
      <point x="1052.0" y="323.0"/>
      <point x="1089.0" y="289.0"/>
      <point x="1115.0" y="289.0" type="qcurve"/>
      <point x="1113.0" y="259.0" type="line"/>
      <point x="900.0" y="259.0" type="line"/>
      <point x="873.0" y="270.0" type="line"/>
    </contour>
  </outline>
</glyph>
<glyph name="acute" format="2">
  <advance width="896"/>
  <unicode hex="00B4"/>
  <outline>
    <contour>
      <point x="432.0" y="1066.0" type="line"/>
      <point x="490.0" y="1036.0" type="line"/>
      <point x="711.0" y="1250.0" type="line" smooth="yes"/>
      <point x="724.0" y="1265.0"/>
      <point x="711.0" y="1314.0"/>
      <point x="708.0" y="1331.0" type="qcurve" smooth="yes"/>
      <point x="705.0" y="1376.0"/>
      <point x="631.0" y="1424.0"/>
      <point x="597.0" y="1421.0" type="qcurve" smooth="yes"/>
      <point x="573.0" y="1417.0"/>
      <point x="521.0" y="1347.0"/>
      <point x="510.0" y="1313.0" type="qcurve" smooth="yes"/>
    </contour>
  </outline>
</glyph>
<glyph name="paragraph" format="2">
  <advance width="1034"/>
  <unicode hex="00B6"/>
  <outline>
    <contour>
      <point x="591.0" y="162.0" type="qcurve" smooth="yes"/>
      <point x="709.0" y="737.0" type="line"/>
      <point x="673.0" y="734.0"/>
      <point x="554.0" y="744.0"/>
      <point x="501.0" y="753.0" type="qcurve" smooth="yes"/>
      <point x="348.0" y="778.0"/>
      <point x="124.0" y="1006.0"/>
      <point x="153.0" y="1207.0" type="qcurve" smooth="yes"/>
      <point x="179.0" y="1378.0"/>
      <point x="424.0" y="1500.0"/>
      <point x="582.0" y="1500.0" type="qcurve" smooth="yes"/>
      <point x="1072.0" y="1500.0" type="line"/>
      <point x="1059.0" y="1440.0" type="line"/>
      <point x="984.0" y="1417.0" type="line"/>
      <point x="867.0" y="784.0" type="line"/>
      <point x="749.0" y="211.0" type="line"/>
      <point x="796.0" y="132.0"/>
      <point x="735.0" y="33.0"/>
      <point x="692.0" y="6.0" type="qcurve" smooth="yes"/>
      <point x="634.0" y="-16.0"/>
      <point x="574.0" y="80.0"/>
    </contour>
    <contour>
      <point x="314.0" y="220.0" type="qcurve" smooth="yes"/>
      <point x="437.0" y="792.0" type="line"/>
      <point x="557.0" y="783.0" type="line"/>
      <point x="444.0" y="263.0" type="line" smooth="yes"/>
      <point x="369.0" y="-93.0"/>
      <point x="171.0" y="-236.0"/>
      <point x="90.0" y="-236.0" type="qcurve" smooth="yes"/>
      <point x="-12.0" y="-236.0"/>
      <point x="-90.0" y="-180.0"/>
      <point x="-88.0" y="-110.0" type="qcurve" smooth="yes"/>
      <point x="-86.0" y="-62.0"/>
      <point x="-15.0" y="9.0"/>
      <point x="37.0" y="17.0" type="qcurve"/>
      <point x="48.0" y="-3.0" type="line"/>
      <point x="47.0" y="-34.0" type="line"/>
      <point x="36.0" y="-34.0"/>
      <point x="2.0" y="-87.0"/>
      <point x="1.0" y="-119.0" type="qcurve" smooth="yes"/>
      <point x="1.0" y="-154.0"/>
      <point x="51.0" y="-174.0"/>
      <point x="93.0" y="-174.0" type="qcurve" smooth="yes"/>
      <point x="181.0" y="-174.0"/>
      <point x="269.0" y="25.0"/>
    </contour>
  </outline>
</glyph>
<glyph name="cedilla" format="2">
  <advance width="896"/>
  <unicode hex="00B8"/>
  <outline>
    <contour>
      <point x="256.0" y="2.0" type="line"/>
      <point x="210.0" y="-72.0" type="line"/>
      <point x="231.0" y="-59.0"/>
      <point x="326.0" y="-41.0"/>
      <point x="359.0" y="-41.0" type="qcurve" smooth="yes"/>
      <point x="440.0" y="-41.0"/>
      <point x="557.0" y="-118.0"/>
      <point x="554.0" y="-196.0" type="qcurve" smooth="yes"/>
      <point x="549.0" y="-289.0"/>
      <point x="387.0" y="-375.0"/>
      <point x="265.0" y="-375.0" type="qcurve" smooth="yes"/>
      <point x="160.0" y="-375.0"/>
      <point x="48.0" y="-322.0"/>
      <point x="7.0" y="-267.0" type="qcurve"/>
      <point x="27.0" y="-273.0" type="line"/>
      <point x="72.0" y="-308.0"/>
      <point x="143.0" y="-334.0"/>
      <point x="233.0" y="-334.0" type="qcurve" smooth="yes"/>
      <point x="316.0" y="-334.0"/>
      <point x="391.0" y="-258.0"/>
      <point x="396.0" y="-206.0" type="qcurve" smooth="yes"/>
      <point x="396.0" y="-177.0"/>
      <point x="337.0" y="-99.0"/>
      <point x="290.0" y="-99.0" type="qcurve" smooth="yes"/>
      <point x="257.0" y="-99.0"/>
      <point x="207.0" y="-111.0"/>
      <point x="190.0" y="-120.0" type="qcurve"/>
      <point x="167.0" y="-100.0" type="line"/>
      <point x="238.0" y="10.0" type="line"/>
    </contour>
  </outline>
</glyph>
<glyph name="ordmasculine" format="2">
  <advance width="696"/>
  <unicode hex="00BA"/>
  <outline>
    <contour>
      <point x="194.0" y="1182.0" type="qcurve" smooth="yes"/>
      <point x="240.0" y="1354.0"/>
      <point x="473.0" y="1509.0"/>
      <point x="600.0" y="1504.0" type="qcurve" smooth="yes"/>
      <point x="733.0" y="1500.0"/>
      <point x="821.0" y="1233.0"/>
      <point x="784.0" y="1098.0" type="qcurve" smooth="yes"/>
      <point x="735.0" y="918.0"/>
      <point x="512.0" y="760.0"/>
      <point x="371.0" y="765.0" type="qcurve" smooth="yes"/>
      <point x="234.0" y="769.0"/>
      <point x="148.0" y="1034.0"/>
    </contour>
    <contour>
      <point x="514.0" y="1160.0" type="qcurve" smooth="yes"/>
      <point x="480.0" y="1027.0"/>
      <point x="381.0" y="800.0"/>
      <point x="403.0" y="792.0" type="qcurve" smooth="yes"/>
      <point x="427.0" y="784.0"/>
      <point x="439.0" y="974.0"/>
      <point x="473.0" y="1121.0" type="qcurve" smooth="yes"/>
      <point x="501.0" y="1251.0"/>
      <point x="594.0" y="1466.0"/>
      <point x="571.0" y="1472.0" type="qcurve" smooth="yes"/>
      <point x="550.0" y="1477.0"/>
      <point x="544.0" y="1291.0"/>
    </contour>
  </outline>
</glyph>
<glyph name="Thorn" format="2">
  <advance width="1319"/>
  <unicode hex="00DE"/>
  <outline>
    <contour>
      <point x="739.0" y="1243.0" type="line"/>
      <point x="836.0" y="1243.0" type="line" smooth="yes"/>
      <point x="1039.0" y="1243.0"/>
      <point x="1274.0" y="1050.0"/>
      <point x="1272.0" y="828.0" type="qcurve" smooth="yes"/>
      <point x="1264.0" y="569.0"/>
      <point x="995.0" y="328.0"/>
      <point x="671.0" y="328.0" type="qcurve" smooth="yes"/>
      <point x="644.0" y="328.0"/>
      <point x="524.0" y="340.0"/>
      <point x="490.0" y="355.0" type="qcurve"/>
      <point x="497.0" y="429.0" type="line"/>
      <point x="546.0" y="411.0"/>
      <point x="573.0" y="402.0"/>
      <point x="563.0" y="402.0" type="qcurve" smooth="yes"/>
      <point x="676.0" y="402.0"/>
      <point x="785.0" y="569.0"/>
      <point x="807.0" y="806.0" type="qcurve" smooth="yes"/>
      <point x="819.0" y="991.0"/>
      <point x="721.0" y="1175.0"/>
      <point x="594.0" y="1175.0" type="qcurve" smooth="yes"/>
      <point x="751.0" y="1175.0" type="line"/>
      <point x="718.0" y="1151.0" type="line"/>
      <point x="565.0" y="389.0" type="line"/>
      <point x="484.0" y="64.0" type="line"/>
      <point x="570.0" y="51.0" type="line"/>
      <point x="555.0" y="0.0" type="line"/>
      <point x="-68.0" y="0.0" type="line"/>
      <point x="-54.0" y="51.0" type="line"/>
      <point x="-29.0" y="52.0" type="line"/>
      <point x="151.0" y="861.0" type="line"/>
      <point x="286.0" y="1436.0" type="line"/>
      <point x="196.0" y="1446.0" type="line"/>
      <point x="204.0" y="1500.0" type="line"/>
      <point x="838.0" y="1500.0" type="line"/>
      <point x="829.0" y="1435.0" type="line"/>
      <point x="757.0" y="1428.0" type="line"/>
    </contour>
  </outline>
</glyph>
<glyph name="divide" format="2">
  <advance width="744"/>
  <unicode hex="00F7"/>
  <outline>
    <contour>
      <point x="101.0" y="525.0" type="line"/>
      <point x="101.0" y="739.0" type="line"/>
      <point x="741.0" y="739.0" type="line"/>
      <point x="741.0" y="525.0" type="line"/>
    </contour>
    <contour>
      <point x="290.0" y="354.0" type="qcurve" smooth="yes"/>
      <point x="290.0" y="407.0"/>
      <point x="365.0" y="487.0"/>
      <point x="423.0" y="487.0" type="qcurve" smooth="yes"/>
      <point x="481.0" y="487.0"/>
      <point x="556.0" y="407.0"/>
      <point x="556.0" y="354.0" type="qcurve" smooth="yes"/>
      <point x="556.0" y="303.0"/>
      <point x="481.0" y="222.0"/>
      <point x="423.0" y="222.0" type="qcurve" smooth="yes"/>
      <point x="365.0" y="222.0"/>
      <point x="290.0" y="303.0"/>
    </contour>
    <contour>
      <point x="290.0" y="912.0" type="qcurve" smooth="yes"/>
      <point x="290.0" y="963.0"/>
      <point x="365.0" y="1044.0"/>
      <point x="423.0" y="1044.0" type="qcurve" smooth="yes"/>
      <point x="481.0" y="1044.0"/>
      <point x="556.0" y="963.0"/>
      <point x="556.0" y="912.0" type="qcurve" smooth="yes"/>
      <point x="556.0" y="859.0"/>
      <point x="481.0" y="779.0"/>
      <point x="423.0" y="779.0" type="qcurve" smooth="yes"/>
      <point x="365.0" y="779.0"/>
      <point x="290.0" y="859.0"/>
    </contour>
  </outline>
</glyph>
<glyph name="jdotless" format="2">
  <advance width="669"/>
  <unicode hex="0237"/>
  <outline>
    <contour>
      <point x="127.0" y="809.0" type="qcurve"/>
      <point x="10.0" y="836.0" type="line"/>
      <point x="15.0" y="918.0" type="line"/>
      <point x="503.0" y="971.0" type="line"/>
      <point x="600.0" y="958.0" type="line"/>
      <point x="608.0" y="906.0" type="line"/>
      <point x="578.0" y="769.0" type="line"/>
      <point x="490.0" y="350.0" type="line"/>
      <point x="431.0" y="-6.0"/>
      <point x="11.0" y="-479.0"/>
      <point x="-346.0" y="-479.0" type="qcurve"/>
      <point x="-496.0" y="-419.0" type="line"/>
      <point x="-476.0" y="-360.0" type="line"/>
      <point x="-425.0" y="-358.0" type="line" smooth="yes"/>
      <point x="-188.0" y="-355.0"/>
      <point x="-36.0" y="-80.0"/>
      <point x="7.0" y="159.0" type="qcurve" smooth="yes"/>
      <point x="24.0" y="254.0"/>
      <point x="98.0" y="614.0"/>
    </contour>
  </outline>
</glyph>
<glyph name="doubleprimemod" format="2">
  <advance width="810"/>
  <unicode hex="02BA"/>
  <outline>
    <contour>
      <point x="337.0" y="1502.0" type="line"/>
      <point x="652.0" y="1502.0" type="line"/>
      <point x="343.0" y="875.0" type="line"/>
      <point x="255.0" y="880.0" type="line"/>
    </contour>
    <contour>
      <point x="757.0" y="1502.0" type="line"/>
      <point x="1072.0" y="1502.0" type="line"/>
      <point x="763.0" y="875.0" type="line"/>
      <point x="675.0" y="880.0" type="line"/>
    </contour>
  </outline>
</glyph>
<glyph name="circumflex" format="2">
  <advance width="896"/>
  <unicode hex="02C6"/>
  <outline>
    <contour>
      <point x="582.0" y="1432.0" type="qcurve" smooth="yes"/>
      <point x="617.0" y="1431.0"/>
      <point x="654.0" y="1381.0"/>
      <point x="675.0" y="1324.0" type="qcurve" smooth="yes"/>
      <point x="773.0" y="1084.0" type="line"/>
      <point x="723.0" y="1045.0" type="line"/>
      <point x="537.0" y="1251.0" type="line"/>
      <point x="241.0" y="1057.0" type="line"/>
      <point x="201.0" y="1093.0" type="line"/>
      <point x="431.0" y="1329.0" type="line" smooth="yes"/>
      <point x="486.0" y="1387.0"/>
      <point x="546.0" y="1434.0"/>
    </contour>
  </outline>
</glyph>
<glyph name="quoteleft" format="2">
  <advance width="467"/>
  <unicode hex="2018"/>
  <outline>
    <contour>
      <point x="581.0" y="1485.0" type="line"/>
      <point x="481.0" y="1426.0"/>
      <point x="385.0" y="1344.0"/>
      <point x="356.0" y="1292.0" type="qcurve"/>
      <point x="465.0" y="1294.0"/>
      <point x="575.0" y="1195.0"/>
      <point x="575.0" y="1109.0" type="qcurve" smooth="yes"/>
      <point x="575.0" y="1038.0"/>
      <point x="469.0" y="931.0"/>
      <point x="388.0" y="931.0" type="qcurve" smooth="yes"/>
      <point x="304.0" y="931.0"/>
      <point x="199.0" y="1018.0"/>
      <point x="199.0" y="1132.0" type="qcurve" smooth="yes"/>
      <point x="199.0" y="1260.0"/>
      <point x="381.0" y="1456.0"/>
      <point x="554.0" y="1525.0" type="qcurve"/>
    </contour>
  </outline>
</glyph>
<glyph name="foursuperior" format="2">
  <advance width="724"/>
  <unicode hex="2074"/>
  <outline>
    <contour>
      <point x="177.0" y="917.0" type="line"/>
      <point x="156.0" y="939.0" type="line"/>
      <point x="613.0" y="1549.0" type="line"/>
      <point x="760.0" y="1501.0" type="line"/>
      <point x="764.0" y="1476.0" type="line"/>
      <point x="680.0" y="936.0" type="line"/>
      <point x="657.0" y="792.0" type="line"/>
      <point x="654.0" y="727.0" type="line"/>
      <point x="380.0" y="683.0" type="line"/>
      <point x="378.0" y="691.0" type="line"/>
      <point x="411.0" y="922.0" type="line"/>
      <point x="479.0" y="1326.0" type="line"/>
      <point x="246.0" y="985.0" type="line"/>
      <point x="248.0" y="981.0" type="line"/>
      <point x="540.0" y="980.0" type="line"/>
      <point x="737.0" y="980.0" type="line"/>
      <point x="720.0" y="928.0" type="line"/>
      <point x="538.0" y="914.0" type="line"/>
    </contour>
  </outline>
</glyph>
<glyph name="naira" format="2">
  <advance width="941"/>
  <unicode hex="20A6"/>
  <outline>
    <contour>
      <point x="1021.0" y="609.0" type="line"/>
      <point x="887.0" y="609.0" type="line"/>
      <point x="882.0" y="609.0" type="line"/>
      <point x="576.0" y="609.0" type="line"/>
      <point x="572.0" y="665.0" type="line"/>
      <point x="897.0" y="665.0" type="line"/>
      <point x="901.0" y="665.0" type="line"/>
      <point x="1027.0" y="665.0" type="line"/>
    </contour>
    <contour>
      <point x="-1.0" y="609.0" type="line"/>
      <point x="21.0" y="665.0" type="line"/>
      <point x="132.0" y="665.0" type="line"/>
      <point x="128.0" y="665.0" type="line"/>
      <point x="572.0" y="665.0" type="line"/>
      <point x="574.0" y="609.0" type="line"/>
      <point x="119.0" y="609.0" type="line"/>
      <point x="118.0" y="609.0" type="line"/>
    </contour>
    <contour>
      <point x="1069.0" y="940.0" type="line"/>
      <point x="950.0" y="940.0" type="line"/>
      <point x="953.0" y="940.0" type="line"/>
      <point x="512.0" y="940.0" type="line"/>
      <point x="513.0" y="996.0" type="line"/>
      <point x="964.0" y="996.0" type="line"/>
      <point x="967.0" y="996.0" type="line"/>
      <point x="1077.0" y="996.0" type="line"/>
    </contour>
    <contour>
      <point x="44.0" y="940.0" type="line"/>
      <point x="68.0" y="996.0" type="line"/>
      <point x="205.0" y="996.0" type="line"/>
      <point x="200.0" y="996.0" type="line"/>
      <point x="513.0" y="996.0" type="line"/>
      <point x="512.0" y="940.0" type="line"/>
      <point x="191.0" y="940.0" type="line"/>
      <point x="188.0" y="940.0" type="line"/>
    </contour>
    <contour>
      <point x="-189.0" y="0.0" type="line"/>
      <point x="-173.0" y="51.0" type="line"/>
      <point x="-68.0" y="91.0" type="line"/>
      <point x="76.0" y="753.0" type="line"/>
      <point x="217.0" y="1402.0" type="line"/>
      <point x="111.0" y="1449.0" type="line"/>
      <point x="132.0" y="1500.0" type="line"/>
      <point x="562.0" y="1500.0" type="line"/>
      <point x="664.0" y="990.0" type="line"/>
      <point x="816.0" y="436.0" type="line"/>
      <point x="901.0" y="805.0" type="line"/>
      <point x="1019.0" y="1402.0" type="line"/>
      <point x="892.0" y="1447.0" type="line"/>
      <point x="903.0" y="1500.0" type="line"/>
      <point x="1230.0" y="1500.0" type="line"/>
      <point x="1219.0" y="1447.0" type="line"/>
      <point x="1113.0" y="1402.0" type="line"/>
      <point x="984.0" y="778.0" type="line"/>
      <point x="815.0" y="-4.0" type="line"/>
      <point x="496.0" y="-4.0" type="line"/>
      <point x="389.0" y="570.0" type="line"/>
      <point x="256.0" y="1157.0" type="line"/>
      <point x="150.0" y="688.0" type="line"/>
      <point x="26.0" y="91.0" type="line"/>
      <point x="157.0" y="51.0" type="line"/>
      <point x="143.0" y="0.0" type="line"/>
    </contour>
  </outline>
</glyph>
<glyph name="cedi" format="2">
  <advance width="968"/>
  <unicode hex="20B5"/>
  <outline>
    <contour>
      <point x="155.0" y="785.0" type="qcurve" smooth="yes"/>
      <point x="225.0" y="1159.0"/>
      <point x="598.0" y="1432.0"/>
      <point x="796.0" y="1396.0" type="qcurve" smooth="yes"/>
      <point x="941.0" y="1369.0"/>
      <point x="1062.0" y="1165.0"/>
      <point x="1050.0" y="992.0" type="qcurve"/>
      <point x="923.0" y="992.0" type="line"/>
      <point x="924.0" y="1124.0"/>
      <point x="844.0" y="1277.0"/>
      <point x="828.0" y="1300.0" type="qcurve" smooth="yes"/>
      <point x="732.0" y="1345.0"/>
      <point x="640.0" y="1054.0"/>
      <point x="590.0" y="819.0" type="qcurve" smooth="yes"/>
      <point x="526.0" y="537.0"/>
      <point x="503.0" y="220.0"/>
      <point x="586.0" y="192.0" type="qcurve" smooth="yes"/>
      <point x="667.0" y="165.0"/>
      <point x="826.0" y="296.0"/>
      <point x="899.0" y="428.0" type="qcurve"/>
      <point x="929.0" y="414.0" type="line"/>
      <point x="964.0" y="363.0" type="line"/>
      <point x="862.0" y="190.0"/>
      <point x="694.0" y="55.0"/>
      <point x="545.0" y="68.0" type="qcurve" smooth="yes"/>
      <point x="334.0" y="86.0"/>
      <point x="89.0" y="428.0"/>
    </contour>
    <contour>
      <point x="506.0" y="-70.0" type="line"/>
      <point x="567.0" y="136.0" type="line"/>
      <point x="561.0" y="136.0" type="line"/>
      <point x="718.0" y="811.0" type="line"/>
      <point x="739.0" y="803.0" type="line"/>
      <point x="580.0" y="109.0" type="line"/>
      <point x="574.0" y="110.0" type="line"/>
      <point x="527.0" y="-79.0" type="line"/>
    </contour>
    <contour>
      <point x="899.0" y="1562.0" type="line"/>
      <point x="916.0" y="1567.0" type="line"/>
      <point x="872.0" y="1392.0" type="line"/>
      <point x="876.0" y="1392.0" type="line"/>
      <point x="739.0" y="803.0" type="line"/>
      <point x="718.0" y="811.0" type="line"/>
      <point x="854.0" y="1401.0" type="line"/>
      <point x="860.0" y="1401.0" type="line"/>
    </contour>
  </outline>
</glyph>
<glyph name="ruble" format="2">
  <advance width="1245"/>
  <unicode hex="20BD"/>
  <outline>
    <contour>
      <point x="26.0" y="375.0" type="line"/>
      <point x="42.0" y="453.0" type="line"/>
      <point x="826.0" y="460.0" type="line"/>
      <point x="806.0" y="382.0" type="line"/>
    </contour>
    <contour>
      <point x="-58.0" y="0.0" type="line"/>
      <point x="-24.0" y="51.0" type="line"/>
      <point x="17.0" y="74.0" type="line"/>
      <point x="184.0" y="848.0" type="line"/>
      <point x="320.0" y="1414.0" type="line"/>
      <point x="234.0" y="1446.0" type="line"/>
      <point x="242.0" y="1500.0" type="line"/>
      <point x="878.0" y="1500.0" type="line" smooth="yes"/>
      <point x="1078.0" y="1500.0"/>
      <point x="1348.0" y="1359.0"/>
      <point x="1341.0" y="1137.0" type="qcurve" smooth="yes"/>
      <point x="1331.0" y="893.0"/>
      <point x="1038.0" y="621.0"/>
      <point x="664.0" y="615.0" type="qcurve" smooth="yes"/>
      <point x="408.0" y="613.0"/>
      <point x="216.0" y="639.0"/>
      <point x="122.0" y="685.0" type="qcurve"/>
      <point x="134.0" y="761.0" type="line"/>
      <point x="223.0" y="720.0"/>
      <point x="436.0" y="706.0"/>
      <point x="626.0" y="706.0" type="qcurve" smooth="yes"/>
      <point x="739.0" y="706.0"/>
      <point x="876.0" y="880.0"/>
      <point x="898.0" y="1115.0" type="qcurve" smooth="yes"/>
      <point x="909.0" y="1295.0"/>
      <point x="785.0" y="1432.0"/>
      <point x="656.0" y="1432.0" type="qcurve" smooth="yes"/>
      <point x="808.0" y="1432.0" type="line"/>
      <point x="775.0" y="1408.0" type="line"/>
      <point x="631.0" y="764.0" type="line"/>
      <point x="490.0" y="79.0" type="line"/>
      <point x="601.0" y="51.0" type="line"/>
      <point x="580.0" y="0.0" type="line"/>
    </contour>
  </outline>
</glyph>
<glyph name="numero" format="2">
  <advance width="1594"/>
  <unicode hex="2116"/>
  <outline>
    <contour>
      <point x="1146.0" y="669.0" type="qcurve" smooth="yes"/>
      <point x="1155.0" y="706.0"/>
      <point x="1164.0" y="709.0"/>
      <point x="1342.0" y="699.0" type="qcurve" smooth="yes"/>
      <point x="1558.0" y="686.0"/>
      <point x="1561.0" y="681.0"/>
      <point x="1556.0" y="632.0" type="qcurve" smooth="yes"/>
      <point x="1553.0" y="599.0"/>
      <point x="1549.0" y="595.0"/>
      <point x="1327.0" y="608.0" type="qcurve" smooth="yes"/>
      <point x="1142.0" y="619.0"/>
      <point x="1137.0" y="624.0"/>
    </contour>
    <contour>
      <point x="-59.0" y="0.0" type="line"/>
      <point x="-43.0" y="51.0" type="line"/>
      <point x="62.0" y="91.0" type="line"/>
      <point x="206.0" y="753.0" type="line"/>
      <point x="347.0" y="1402.0" type="line"/>
      <point x="241.0" y="1449.0" type="line"/>
      <point x="262.0" y="1500.0" type="line"/>
      <point x="664.0" y="1500.0" type="line"/>
      <point x="759.0" y="957.0" type="line"/>
      <point x="830.0" y="420.0" type="line"/>
      <point x="942.0" y="805.0" type="line"/>
      <point x="1079.0" y="1402.0" type="line"/>
      <point x="952.0" y="1447.0" type="line"/>
      <point x="963.0" y="1500.0" type="line"/>
      <point x="1290.0" y="1500.0" type="line"/>
      <point x="1279.0" y="1447.0" type="line"/>
      <point x="1173.0" y="1402.0" type="line"/>
      <point x="1025.0" y="778.0" type="line"/>
      <point x="835.0" y="-4.0" type="line"/>
      <point x="486.0" y="-4.0" type="line"/>
      <point x="446.0" y="587.0" type="line"/>
      <point x="379.0" y="1085.0" type="line"/>
      <point x="280.0" y="688.0" type="line"/>
      <point x="156.0" y="91.0" type="line"/>
      <point x="287.0" y="51.0" type="line"/>
      <point x="273.0" y="0.0" type="line"/>
    </contour>
    <contour>
      <point x="1258.0" y="1180.0" type="qcurve" smooth="yes"/>
      <point x="1305.0" y="1340.0"/>
      <point x="1522.0" y="1496.0"/>
      <point x="1600.0" y="1487.0" type="qcurve" smooth="yes"/>
      <point x="1701.0" y="1477.0"/>
      <point x="1782.0" y="1240.0"/>
      <point x="1738.0" y="1113.0" type="qcurve" smooth="yes"/>
      <point x="1686.0" y="948.0"/>
      <point x="1471.0" y="802.0"/>
      <point x="1400.0" y="809.0" type="qcurve" smooth="yes"/>
      <point x="1314.0" y="819.0"/>
      <point x="1216.0" y="1041.0"/>
    </contour>
    <contour>
      <point x="1538.0" y="1174.0" type="qcurve" smooth="yes"/>
      <point x="1506.0" y="1070.0"/>
      <point x="1404.0" y="887.0"/>
      <point x="1414.0" y="877.0" type="qcurve" smooth="yes"/>
      <point x="1424.0" y="864.0"/>
      <point x="1437.0" y="1016.0"/>
      <point x="1469.0" y="1134.0" type="qcurve" smooth="yes"/>
      <point x="1496.0" y="1235.0"/>
      <point x="1590.0" y="1419.0"/>
      <point x="1584.0" y="1426.0" type="qcurve" smooth="yes"/>
      <point x="1577.0" y="1434.0"/>
      <point x="1574.0" y="1276.0"/>
    </contour>
  </outline>
</glyph>
<glyph name="minus" format="2">
  <advance width="744"/>
  <unicode hex="2212"/>
  <outline>
    <contour>
      <point x="92.0" y="525.0" type="line"/>
      <point x="92.0" y="739.0" type="line"/>
      <point x="751.0" y="739.0" type="line"/>
      <point x="751.0" y="525.0" type="line"/>
    </contour>
  </outline>
</glyph>
<glyph name="divisionslash" format="2">
  <advance width="536"/>
  <unicode hex="2215"/>
  <outline>
    <contour>
      <point x="-115.0" y="-92.0" type="line"/>
      <point x="500.0" y="1586.0" type="line"/>
      <point x="680.0" y="1542.0" type="line"/>
      <point x="67.0" y="-135.0" type="line"/>
    </contour>
  </outline>
</glyph>
<glyph name="fi" format="2">
  <advance width="1343"/>
  <unicode hex="FB01"/>
  <outline>
    <contour>
      <point x="70.0" y="236.0" type="qcurve" smooth="yes"/>
      <point x="167.0" y="852.0" type="line"/>
      <point x="169.0" y="857.0" type="line"/>
      <point x="218.0" y="1136.0" type="line" smooth="yes"/>
      <point x="242.0" y="1287.0"/>
      <point x="497.0" y="1551.0"/>
      <point x="765.0" y="1550.0" type="qcurve" smooth="yes"/>
      <point x="945.0" y="1549.0"/>
      <point x="1144.0" y="1445.0"/>
      <point x="1144.0" y="1343.0" type="qcurve" smooth="yes"/>
      <point x="1144.0" y="1259.0"/>
      <point x="1051.0" y="1178.0"/>
      <point x="955.0" y="1178.0" type="qcurve" smooth="yes"/>
      <point x="950.0" y="1206.0"/>
      <point x="940.0" y="1293.0"/>
      <point x="943.0" y="1336.0" type="qcurve" smooth="yes"/>
      <point x="948.0" y="1393.0"/>
      <point x="905.0" y="1482.0"/>
      <point x="820.0" y="1483.0" type="qcurve" smooth="yes"/>
      <point x="734.0" y="1485.0"/>
      <point x="698.0" y="1302.0"/>
      <point x="669.0" y="1123.0" type="qcurve" smooth="yes"/>
      <point x="627.0" y="858.0" type="line"/>
      <point x="626.0" y="851.0" type="line"/>
      <point x="569.0" y="474.0" type="line" smooth="yes"/>
      <point x="505.0" y="10.0"/>
      <point x="-16.0" y="-496.0"/>
      <point x="-293.0" y="-496.0" type="qcurve"/>
      <point x="-466.0" y="-439.0" type="line"/>
      <point x="-442.0" y="-403.0" type="line"/>
      <point x="-351.0" y="-403.0" type="line" smooth="yes"/>
      <point x="-150.0" y="-402.0"/>
      <point x="23.0" y="-85.0"/>
    </contour>
    <contour>
      <point x="40.0" y="781.0" type="line"/>
      <point x="47.0" y="862.0" type="line"/>
      <point x="192.0" y="867.0" type="line"/>
      <point x="816.0" y="880.0" type="line"/>
      <point x="805.0" y="801.0" type="line"/>
      <point x="548.0" y="786.0" type="line"/>
      <point x="189.0" y="775.0" type="line"/>
    </contour>
    <contour>
      <point x="708.0" y="-11.0" type="line"/>
      <point x="649.0" y="111.0" type="line"/>
      <point x="754.0" y="527.0" type="line"/>
      <point x="810.0" y="782.0" type="line"/>
      <point x="614.0" y="811.0" type="line"/>
      <point x="619.0" y="836.0" type="line"/>
      <point x="1184.0" y="948.0" type="line"/>
      <point x="1281.0" y="934.0" type="line"/>
      <point x="1230.0" y="866.0" type="line"/>
      <point x="1227.0" y="779.0" type="line"/>
      <point x="1112.0" y="133.0" type="line"/>
      <point x="1286.0" y="118.0" type="line"/>
      <point x="1277.0" y="59.0" type="line"/>
    </contour>
  </outline>
</glyph>
<glyph name="fl" format="2">
  <advance width="1265"/>
  <unicode hex="FB02"/>
  <outline>
    <contour>
      <point x="-445.0" y="-438.0" type="line"/>
      <point x="-422.0" y="-403.0" type="line"/>
      <point x="-351.0" y="-403.0" type="line" smooth="yes"/>
      <point x="-150.0" y="-402.0"/>
      <point x="23.0" y="-85.0"/>
      <point x="70.0" y="236.0" type="qcurve" smooth="yes"/>
      <point x="167.0" y="852.0" type="line"/>
      <point x="169.0" y="857.0" type="line"/>
      <point x="234.0" y="1225.0" type="line" smooth="yes"/>
      <point x="240.0" y="1299.0"/>
      <point x="471.0" y="1551.0"/>
      <point x="679.0" y="1550.0" type="qcurve" smooth="yes"/>
      <point x="834.0" y="1549.0"/>
      <point x="947.0" y="1475.0"/>
      <point x="942.0" y="1394.0" type="qcurve" smooth="yes"/>
      <point x="938.0" y="1323.0"/>
      <point x="841.0" y="1250.0"/>
      <point x="773.0" y="1255.0" type="qcurve" smooth="yes"/>
      <point x="771.0" y="1280.0"/>
      <point x="763.0" y="1338.0"/>
      <point x="764.0" y="1372.0" type="qcurve" smooth="yes"/>
      <point x="764.0" y="1405.0"/>
      <point x="776.0" y="1480.0"/>
      <point x="730.0" y="1480.0" type="qcurve" smooth="yes"/>
      <point x="692.0" y="1480.0"/>
      <point x="702.0" y="1312.0"/>
      <point x="686.0" y="1212.0" type="qcurve" smooth="yes"/>
      <point x="626.0" y="860.0" type="line"/>
      <point x="625.0" y="854.0" type="line"/>
      <point x="569.0" y="474.0" type="line" smooth="yes"/>
      <point x="507.0" y="9.0"/>
      <point x="-16.0" y="-496.0"/>
      <point x="-293.0" y="-496.0" type="qcurve"/>
    </contour>
    <contour>
      <point x="40.0" y="776.0" type="line"/>
      <point x="45.0" y="856.0" type="line"/>
      <point x="183.0" y="867.0" type="line"/>
      <point x="857.0" y="877.0" type="line"/>
      <point x="846.0" y="798.0" type="line"/>
      <point x="538.0" y="781.0" type="line"/>
      <point x="178.0" y="774.0" type="line"/>
    </contour>
    <contour>
      <point x="654.0" y="-23.0" type="line"/>
      <point x="627.0" y="35.0" type="line"/>
      <point x="750.0" y="604.0" type="line"/>
      <point x="889.0" y="1401.0" type="line"/>
      <point x="771.0" y="1394.0" type="line"/>
      <point x="790.0" y="1437.0" type="line"/>
      <point x="1328.0" y="1553.0" type="line"/>
      <point x="1342.0" y="1497.0" type="line"/>
      <point x="1170.0" y="588.0" type="line"/>
      <point x="1082.0" y="142.0" type="line"/>
      <point x="1259.0" y="143.0" type="line"/>
      <point x="1250.0" y="86.0" type="line"/>
    </contour>
  </outline>
</glyph>
<glyph name="cedillacomb.case" format="2">
  <advance width="896"/>
  <outline>
    <contour>
      <point x="231.0" y="-7.0" type="line"/>
      <point x="169.0" y="-97.0" type="line"/>
      <point x="193.0" y="-82.0"/>
      <point x="295.0" y="-64.0"/>
      <point x="331.0" y="-64.0" type="qcurve" smooth="yes"/>
      <point x="422.0" y="-64.0"/>
      <point x="552.0" y="-157.0"/>
      <point x="551.0" y="-244.0" type="qcurve" smooth="yes"/>
      <point x="547.0" y="-349.0"/>
      <point x="352.0" y="-448.0"/>
      <point x="217.0" y="-448.0" type="qcurve" smooth="yes"/>
      <point x="103.0" y="-448.0"/>
      <point x="-23.0" y="-388.0"/>
      <point x="-69.0" y="-329.0" type="qcurve"/>
      <point x="-40.0" y="-320.0" type="line"/>
      <point x="9.0" y="-359.0"/>
      <point x="89.0" y="-394.0"/>
      <point x="187.0" y="-394.0" type="qcurve" smooth="yes"/>
      <point x="279.0" y="-394.0"/>
      <point x="363.0" y="-314.0"/>
      <point x="368.0" y="-257.0" type="qcurve" smooth="yes"/>
      <point x="368.0" y="-224.0"/>
      <point x="304.0" y="-133.0"/>
      <point x="251.0" y="-133.0" type="qcurve" smooth="yes"/>
      <point x="215.0" y="-133.0"/>
      <point x="158.0" y="-148.0"/>
      <point x="138.0" y="-156.0" type="qcurve"/>
      <point x="111.0" y="-128.0" type="line"/>
      <point x="198.0" y="6.0" type="line"/>
    </contour>
  </outline>
</glyph>
<glyph name="commaaccentcomb.case" format="2">
  <advance width="896"/>
  <outline>
    <contour>
      <point x="62.0" y="-646.0" type="qcurve"/>
      <point x="71.0" y="-671.0" type="line"/>
      <point x="210.0" y="-609.0"/>
      <point x="418.0" y="-417.0"/>
      <point x="429.0" y="-298.0" type="qcurve" smooth="yes"/>
      <point x="437.0" y="-242.0"/>
      <point x="374.0" y="-181.0"/>
      <point x="306.0" y="-181.0" type="qcurve" smooth="yes"/>
      <point x="242.0" y="-181.0"/>
      <point x="158.0" y="-256.0"/>
      <point x="149.0" y="-319.0" type="qcurve" smooth="yes"/>
      <point x="141.0" y="-372.0"/>
      <point x="199.0" y="-456.0"/>
      <point x="267.0" y="-456.0" type="qcurve"/>
      <point x="246.0" y="-503.0"/>
      <point x="140.0" y="-599.0"/>
    </contour>
  </outline>
</glyph>
<glyph name="dieresisbelowcomb.case" format="2">
  <advance width="896"/>
  <outline>
    <contour>
      <point x="-18.0" y="-270.0" type="qcurve" smooth="yes"/>
      <point x="-18.0" y="-214.0"/>
      <point x="63.0" y="-135.0"/>
      <point x="120.0" y="-135.0" type="qcurve" smooth="yes"/>
      <point x="180.0" y="-135.0"/>
      <point x="259.0" y="-212.0"/>
      <point x="259.0" y="-270.0" type="qcurve" smooth="yes"/>
      <point x="259.0" y="-326.0"/>
      <point x="176.0" y="-405.0"/>
      <point x="120.0" y="-405.0" type="qcurve" smooth="yes"/>
      <point x="61.0" y="-405.0"/>
      <point x="-18.0" y="-328.0"/>
    </contour>
    <contour>
      <point x="230.0" y="-270.0" type="qcurve" smooth="yes"/>
      <point x="230.0" y="-214.0"/>
      <point x="312.0" y="-135.0"/>
      <point x="368.0" y="-135.0" type="qcurve" smooth="yes"/>
      <point x="428.0" y="-135.0"/>
      <point x="507.0" y="-212.0"/>
      <point x="507.0" y="-270.0" type="qcurve" smooth="yes"/>
      <point x="507.0" y="-326.0"/>
      <point x="425.0" y="-405.0"/>
      <point x="368.0" y="-405.0" type="qcurve" smooth="yes"/>
      <point x="309.0" y="-405.0"/>
      <point x="230.0" y="-328.0"/>
    </contour>
  </outline>
</glyph>
<glyph name="dieresiscomb.case" format="2">
  <advance width="896"/>
  <outline>
    <contour>
      <point x="250.0" y="1699.0" type="qcurve" smooth="yes"/>
      <point x="250.0" y="1763.0"/>
      <point x="317.0" y="1828.0"/>
      <point x="384.0" y="1828.0" type="qcurve" smooth="yes"/>
      <point x="446.0" y="1828.0"/>
      <point x="517.0" y="1757.0"/>
      <point x="517.0" y="1699.0" type="qcurve" smooth="yes"/>
      <point x="517.0" y="1635.0"/>
      <point x="450.0" y="1568.0"/>
      <point x="384.0" y="1568.0" type="qcurve" smooth="yes"/>
      <point x="321.0" y="1568.0"/>
      <point x="250.0" y="1639.0"/>
    </contour>
    <contour>
      <point x="498.0" y="1699.0" type="qcurve" smooth="yes"/>
      <point x="498.0" y="1763.0"/>
      <point x="566.0" y="1828.0"/>
      <point x="632.0" y="1828.0" type="qcurve" smooth="yes"/>
      <point x="694.0" y="1828.0"/>
      <point x="765.0" y="1757.0"/>
      <point x="765.0" y="1699.0" type="qcurve" smooth="yes"/>
      <point x="765.0" y="1635.0"/>
      <point x="699.0" y="1568.0"/>
      <point x="632.0" y="1568.0" type="qcurve" smooth="yes"/>
      <point x="569.0" y="1568.0"/>
      <point x="498.0" y="1639.0"/>
    </contour>
  </outline>
</glyph>
<glyph name="eight.lc" format="2">
  <advance width="1084"/>
  <outline>
    <contour>
      <point x="17.0" y="274.0" type="qcurve" smooth="yes"/>
      <point x="29.0" y="417.0"/>
      <point x="296.0" y="599.0"/>
      <point x="557.0" y="675.0" type="qcurve"/>
      <point x="593.0" y="646.0" type="line"/>
      <point x="461.0" y="565.0"/>
      <point x="284.0" y="392.0"/>
      <point x="274.0" y="274.0" type="qcurve" smooth="yes"/>
      <point x="266.0" y="170.0"/>
      <point x="361.0" y="36.0"/>
      <point x="459.0" y="36.0" type="qcurve" smooth="yes"/>
      <point x="569.0" y="36.0"/>
      <point x="681.0" y="185.0"/>
      <point x="684.0" y="276.0" type="qcurve" smooth="yes"/>
      <point x="687.0" y="380.0"/>
      <point x="493.0" y="545.0"/>
      <point x="458.0" y="582.0" type="qcurve" smooth="yes"/>
      <point x="364.0" y="655.0"/>
      <point x="257.0" y="857.0"/>
      <point x="265.0" y="956.0" type="qcurve" smooth="yes"/>
      <point x="277.0" y="1107.0"/>
      <point x="542.0" y="1302.0"/>
      <point x="778.0" y="1297.0" type="qcurve" smooth="yes"/>
      <point x="975.0" y="1293.0"/>
      <point x="1126.0" y="1130.0"/>
      <point x="1107.0" y="1025.0" type="qcurve" smooth="yes"/>
      <point x="1087.0" y="913.0"/>
      <point x="882.0" y="780.0"/>
      <point x="668.0" y="701.0" type="qcurve"/>
      <point x="618.0" y="732.0" type="line"/>
      <point x="720.0" y="789.0"/>
      <point x="853.0" y="920.0"/>
      <point x="864.0" y="1028.0" type="qcurve" smooth="yes"/>
      <point x="873.0" y="1123.0"/>
      <point x="814.0" y="1223.0"/>
      <point x="757.0" y="1226.0" type="qcurve" smooth="yes"/>
      <point x="682.0" y="1230.0"/>
      <point x="583.0" y="1118.0"/>
      <point x="577.0" y="1011.0" type="qcurve" smooth="yes"/>
      <point x="572.0" y="939.0"/>
      <point x="725.0" y="820.0"/>
      <point x="795.0" y="753.0" type="qcurve" smooth="yes"/>
      <point x="910.0" y="660.0"/>
      <point x="1027.0" y="453.0"/>
      <point x="1016.0" y="333.0" type="qcurve" smooth="yes"/>
      <point x="1003.0" y="199.0"/>
      <point x="707.0" y="-29.0"/>
      <point x="419.0" y="-29.0" type="qcurve" smooth="yes"/>
      <point x="210.0" y="-29.0"/>
      <point x="7.0" y="139.0"/>
    </contour>
  </outline>
</glyph>
<glyph name="five.lc" format="2">
  <advance width="879"/>
  <outline>
    <contour>
      <point x="51.0" y="-439.0" type="qcurve" smooth="yes"/>
      <point x="-33.0" y="-456.0"/>
      <point x="-150.0" y="-426.0"/>
      <point x="-172.0" y="-407.0" type="qcurve" smooth="yes"/>
      <point x="-81.0" y="-273.0" type="line"/>
      <point x="-43.0" y="-284.0"/>
      <point x="85.0" y="-340.0"/>
      <point x="154.0" y="-340.0" type="curve"/>
      <point x="338.0" y="-340.0"/>
      <point x="568.0" y="-235.0"/>
      <point x="568.0" y="-75.0" type="curve"/>
      <point x="568.0" y="70.0"/>
      <point x="356.0" y="193.0"/>
      <point x="202.0" y="187.0" type="curve"/>
      <point x="-54.0" y="183.0" type="line"/>
      <point x="-116.0" y="324.0" type="line"/>
      <point x="150.0" y="959.0" type="line"/>
      <point x="184.0" y="993.0" type="line"/>
      <point x="194.0" y="1019.0"/>
      <point x="1012.0" y="992.0"/>
      <point x="1039.0" y="999.0" type="qcurve"/>
      <point x="943.0" y="727.0" type="line"/>
      <point x="887.0" y="727.0"/>
      <point x="183.0" y="763.0"/>
      <point x="172.0" y="783.0" type="qcurve" smooth="yes"/>
      <point x="158.0" y="810.0"/>
      <point x="234.0" y="831.0"/>
      <point x="315.0" y="831.0" type="qcurve" smooth="yes"/>
      <point x="280.0" y="662.0"/>
      <point x="259.0" y="551.0"/>
      <point x="234.0" y="508.0" type="qcurve"/>
      <point x="453.0" y="488.0" type="line"/>
      <point x="711.0" y="487.0"/>
      <point x="1014.0" y="274.0"/>
      <point x="1003.0" y="82.0" type="qcurve" smooth="yes"/>
      <point x="940.0" y="-186.0"/>
      <point x="390.0" y="-434.0"/>
    </contour>
  </outline>
</glyph>
<glyph name="five.lf" format="2">
  <advance width="1080"/>
  <outline>
    <contour>
      <point x="20.0" y="203.0" type="qcurve" smooth="yes"/>
      <point x="20.0" y="259.0"/>
      <point x="73.0" y="347.0"/>
      <point x="133.0" y="347.0" type="qcurve"/>
      <point x="168.0" y="346.0" type="line"/>
      <point x="168.0" y="261.0" type="line" smooth="yes"/>
      <point x="168.0" y="154.0"/>
      <point x="277.0" y="72.0"/>
      <point x="374.0" y="72.0" type="qcurve" smooth="yes"/>
      <point x="495.0" y="72.0"/>
      <point x="649.0" y="305.0"/>
      <point x="660.0" y="531.0" type="qcurve" smooth="yes"/>
      <point x="670.0" y="745.0"/>
      <point x="406.0" y="823.0"/>
      <point x="280.0" y="773.0" type="qcurve" smooth="yes"/>
      <point x="262.0" y="760.0" type="line"/>
      <point x="206.0" y="816.0" type="line"/>
      <point x="347.0" y="1467.0" type="line"/>
      <point x="377.0" y="1500.0" type="line"/>
      <point x="1111.0" y="1500.0" type="line"/>
      <point x="1064.0" y="1243.0" type="line"/>
      <point x="403.0" y="1243.0" type="line"/>
      <point x="393.0" y="1232.0" type="line"/>
      <point x="376.0" y="1152.0"/>
      <point x="314.0" y="934.0"/>
      <point x="308.0" y="867.0" type="qcurve"/>
      <point x="546.0" y="950.0" type="line"/>
      <point x="785.0" y="963.0"/>
      <point x="1085.0" y="756.0"/>
      <point x="1075.0" y="536.0" type="qcurve" smooth="yes"/>
      <point x="1062.0" y="302.0"/>
      <point x="663.0" y="-7.0"/>
      <point x="393.0" y="-7.0" type="qcurve" smooth="yes"/>
      <point x="163.0" y="-7.0"/>
      <point x="20.0" y="116.0"/>
    </contour>
  </outline>
</glyph>
<glyph name="four.tab" format="2">
  <advance width="1283"/>
  <outline>
    <contour>
      <point x="119.0" y="415.0" type="line"/>
      <point x="100.0" y="510.0" type="line"/>
      <point x="1069.0" y="1532.0" type="line"/>
      <point x="1251.0" y="1457.0" type="line"/>
      <point x="1259.0" y="1407.0" type="line"/>
      <point x="1106.0" y="523.0" type="line"/>
      <point x="1101.0" y="496.0" type="line"/>
      <point x="1058.0" y="186.0" type="line"/>
      <point x="1058.0" y="53.0" type="line"/>
      <point x="641.0" y="-5.0" type="line"/>
      <point x="621.0" y="24.0" type="line"/>
      <point x="708.0" y="498.0" type="line"/>
      <point x="716.0" y="523.0" type="line"/>
      <point x="815.0" y="1071.0" type="line"/>
      <point x="292.0" y="587.0" type="line"/>
      <point x="296.0" y="577.0" type="line"/>
      <point x="936.0" y="570.0" type="line"/>
      <point x="1251.0" y="570.0" type="line"/>
      <point x="1219.0" y="414.0" type="line"/>
      <point x="925.0" y="408.0" type="line"/>
    </contour>
  </outline>
</glyph>
<glyph name="hookabovecomb.case" format="2">
  <advance width="896"/>
  <outline>
    <contour>
      <point x="359.0" y="1612.0" type="line"/>
      <point x="423.0" y="1840.0" type="line"/>
      <point x="479.0" y="1857.0" type="line"/>
      <point x="509.0" y="1852.0"/>
      <point x="557.0" y="1849.0"/>
      <point x="572.0" y="1849.0" type="qcurve" smooth="yes"/>
      <point x="643.0" y="1849.0"/>
      <point x="736.0" y="1919.0"/>
      <point x="733.0" y="1955.0" type="qcurve" smooth="yes"/>
      <point x="730.0" y="2001.0"/>
      <point x="673.0" y="2021.0"/>
      <point x="615.0" y="2021.0" type="qcurve" smooth="yes"/>
      <point x="577.0" y="2021.0"/>
      <point x="490.0" y="2003.0"/>
      <point x="427.0" y="1983.0" type="qcurve"/>
      <point x="428.0" y="2064.0" type="line"/>
      <point x="448.0" y="2084.0"/>
      <point x="640.0" y="2143.0"/>
      <point x="696.0" y="2143.0" type="qcurve" smooth="yes"/>
      <point x="843.0" y="2143.0"/>
      <point x="939.0" y="2039.0"/>
      <point x="943.0" y="1987.0" type="qcurve" smooth="yes"/>
      <point x="945.0" y="1881.0"/>
      <point x="775.0" y="1752.0"/>
      <point x="629.0" y="1750.0" type="qcurve" smooth="yes"/>
      <point x="590.0" y="1750.0"/>
      <point x="537.0" y="1757.0"/>
      <point x="522.0" y="1759.0" type="qcurve"/>
      <point x="476.0" y="1612.0" type="line"/>
    </contour>
  </outline>
</glyph>
<glyph name="horizontalbarH" format="2">
  <advance width="1672"/>
  <outline>
    <contour>
      <point x="1601.0" y="1165.0" type="line"/>
      <point x="750.0" y="1165.0" type="line"/>
      <point x="750.0" y="1165.0" type="line"/>
      <point x="727.0" y="1165.0" type="line"/>
      <point x="731.0" y="1176.0" type="line"/>
      <point x="754.0" y="1176.0" type="line"/>
      <point x="754.0" y="1176.0" type="line"/>
      <point x="1605.0" y="1176.0" type="line"/>
    </contour>
    <contour>
      <point x="274.0" y="1165.0" type="line"/>
      <point x="279.0" y="1176.0" type="line"/>
      <point x="711.0" y="1176.0" type="line"/>
      <point x="711.0" y="1176.0" type="line"/>
      <point x="731.0" y="1176.0" type="line"/>
      <point x="727.0" y="1165.0" type="line"/>
      <point x="707.0" y="1165.0" type="line"/>
      <point x="707.0" y="1165.0" type="line"/>
    </contour>
  </outline>
</glyph>
<glyph name="horizontalbarlc" format="2">
  <advance width="1046"/>
  <outline>
    <contour>
      <point x="512.0" y="714.0" type="line"/>
      <point x="120.0" y="714.0" type="line"/>
      <point x="134.0" y="757.0" type="line"/>
      <point x="495.0" y="757.0" type="line"/>
      <point x="940.0" y="757.0" type="line"/>
      <point x="937.0" y="714.0" type="line"/>
    </contour>
  </outline>
</glyph>
<glyph name="one.tab" format="2">
  <advance width="1283"/>
  <outline>
    <contour>
      <point x="334.0" y="25.0" type="line"/>
      <point x="362.0" y="59.0"/>
      <point x="391.0" y="151.0"/>
      <point x="420.0" y="314.0" type="qcurve" smooth="yes"/>
      <point x="590.0" y="1035.0" type="line"/>
      <point x="646.0" y="1284.0" type="line"/>
      <point x="320.0" y="1132.0" type="line"/>
      <point x="285.0" y="1232.0" type="line"/>
      <point x="986.0" y="1527.0" type="line"/>
      <point x="1121.0" y="1443.0" type="line"/>
      <point x="1098.0" y="1401.0"/>
      <point x="1083.0" y="1303.0"/>
      <point x="1068.0" y="1235.0" type="qcurve" smooth="yes"/>
      <point x="940.0" y="714.0" type="line"/>
      <point x="825.0" y="143.0" type="line"/>
      <point x="456.0" y="-33.0" type="line"/>
    </contour>
  </outline>
</glyph>
<glyph name="seven.tab" format="2">
  <advance width="1283"/>
  <outline>
    <contour>
      <point x="344.0" y="1134.0" type="line"/>
      <point x="471.0" y="1500.0" type="line"/>
      <point x="1365.0" y="1500.0" type="line"/>
      <point x="1387.0" y="1444.0" type="line"/>
      <point x="1161.0" y="1194.0"/>
      <point x="671.0" y="433.0"/>
      <point x="563.0" y="4.0" type="qcurve"/>
      <point x="317.0" y="-21.0" type="line"/>
      <point x="299.0" y="10.0" type="line"/>
      <point x="450.0" y="442.0"/>
      <point x="708.0" y="874.0"/>
      <point x="1065.0" y="1204.0" type="qcurve"/>
      <point x="1054.0" y="1223.0" type="line"/>
      <point x="458.0" y="1223.0" type="line"/>
      <point x="413.0" y="1134.0" type="line"/>
    </contour>
  </outline>
</glyph>
<glyph name="three.tab" format="2">
  <advance width="1283"/>
  <outline>
    <contour>
      <point x="159.0" y="275.0" type="qcurve" smooth="yes"/>
      <point x="161.0" y="313.0"/>
      <point x="229.0" y="378.0"/>
      <point x="258.0" y="375.0" type="qcurve"/>
      <point x="294.0" y="374.0" type="line"/>
      <point x="289.6000131403837" y="361.2001576846038"/>
      <point x="286.0" y="337.05970149253733"/>
      <point x="286.0" y="292.0" type="qcurve" smooth="yes"/>
      <point x="283.0" y="214.0"/>
      <point x="388.0" y="89.0"/>
      <point x="505.0" y="89.0" type="qcurve" smooth="yes"/>
      <point x="564.0" y="89.0"/>
      <point x="692.0" y="252.0"/>
      <point x="708.0" y="452.0" type="qcurve" smooth="yes"/>
      <point x="722.0" y="611.0"/>
      <point x="662.0" y="773.0"/>
      <point x="551.0" y="769.0" type="qcurve" smooth="yes"/>
      <point x="452.0" y="772.0" type="line"/>
      <point x="454.0" y="847.0" type="line"/>
      <point x="520.0" y="845.0" type="line" smooth="yes"/>
      <point x="666.0" y="840.0"/>
      <point x="773.0" y="1006.0"/>
      <point x="783.0" y="1123.0" type="qcurve" smooth="yes"/>
      <point x="789.0" y="1190.0"/>
      <point x="720.0" y="1322.0"/>
      <point x="633.0" y="1322.0" type="qcurve" smooth="yes"/>
      <point x="617.0" y="1322.0"/>
      <point x="458.0" y="1242.0"/>
      <point x="416.0" y="1169.0" type="qcurve"/>
      <point x="389.0" y="1249.0" type="line"/>
      <point x="429.0" y="1350.0"/>
      <point x="600.0" y="1493.0"/>
      <point x="777.0" y="1492.0" type="qcurve" smooth="yes"/>
      <point x="1004.0" y="1491.0"/>
      <point x="1191.0" y="1349.0"/>
      <point x="1182.0" y="1220.0" type="qcurve" smooth="yes"/>
      <point x="1174.0" y="1070.0"/>
      <point x="987.0" y="875.0"/>
      <point x="827.0" y="826.0" type="qcurve"/>
      <point x="825.0" y="819.0" type="line"/>
      <point x="984.0" y="798.0"/>
      <point x="1121.0" y="575.0"/>
      <point x="1113.0" y="443.0" type="qcurve" smooth="yes"/>
      <point x="1101.0" y="252.0"/>
      <point x="790.0" y="11.0"/>
      <point x="536.0" y="11.0" type="qcurve" smooth="yes"/>
      <point x="333.0" y="11.0"/>
      <point x="157.0" y="186.0"/>
    </contour>
  </outline>
</glyph>
<glyph name="two.lc" format="2">
  <advance width="875"/>
  <outline>
    <contour>
      <point x="-54.0" y="-8.0" type="qcurve"/>
      <point x="-96.0" y="59.0" type="line"/>
      <point x="-106.0" y="58.0"/>
      <point x="58.0" y="176.0"/>
      <point x="50.0" y="172.0" type="qcurve" smooth="yes"/>
      <point x="125.0" y="244.0"/>
      <point x="454.0" y="543.0"/>
      <point x="459.0" y="657.0" type="qcurve" smooth="yes"/>
      <point x="463.0" y="728.0"/>
      <point x="389.0" y="814.0"/>
      <point x="327.0" y="814.0" type="qcurve"/>
      <point x="269.0" y="814.0"/>
      <point x="133.0" y="778.0"/>
      <point x="78.0" y="734.0" type="qcurve"/>
      <point x="64.0" y="806.0" type="line"/>
      <point x="129.0" y="888.0"/>
      <point x="322.0" y="993.0"/>
      <point x="471.0" y="993.0" type="qcurve"/>
      <point x="657.0" y="993.0"/>
      <point x="852.0" y="854.0"/>
      <point x="851.0" y="755.0" type="qcurve" smooth="yes"/>
      <point x="854.0" y="573.0"/>
      <point x="555.0" y="353.0"/>
      <point x="355.0" y="272.0" type="qcurve"/>
      <point x="356.0" y="271.0" type="line"/>
      <point x="365.0" y="271.0"/>
      <point x="395.0" y="272.0"/>
      <point x="404.0" y="273.0" type="qcurve"/>
      <point x="518.0" y="253.0"/>
      <point x="619.0" y="237.0"/>
      <point x="719.0" y="220.0" type="qcurve"/>
      <point x="795.0" y="334.0" type="line"/>
      <point x="864.0" y="317.0" type="line"/>
      <point x="740.0" y="-30.0" type="line"/>
      <point x="641.0" y="-7.0"/>
      <point x="405.0" y="31.0"/>
      <point x="309.0" y="31.0" type="qcurve" smooth="yes"/>
      <point x="244.0" y="31.0"/>
      <point x="-1.0" y="10.0"/>
    </contour>
  </outline>
</glyph>
